<svg width="150" height="266" viewBox="0 0 150 266" fill="none" xmlns="http://www.w3.org/2000/svg">
<g opacity="0.2">
<path d="M16.8273 132.933C16.8707 132.933 16.9131 132.92 16.9492 132.896C16.9853 132.872 17.0135 132.837 17.0301 132.797C17.0467 132.757 17.051 132.713 17.0425 132.671C17.0341 132.628 17.0132 132.589 16.9825 132.558C16.9518 132.527 16.9127 132.507 16.8701 132.498C16.8275 132.49 16.7834 132.494 16.7433 132.511C16.7032 132.527 16.669 132.555 16.6449 132.591C16.6208 132.627 16.6079 132.67 16.6079 132.713C16.6079 132.742 16.6135 132.771 16.6245 132.797C16.6356 132.824 16.6518 132.848 16.6721 132.869C16.6925 132.889 16.7167 132.905 16.7433 132.916C16.77 132.927 16.7985 132.933 16.8273 132.933Z" fill="#7933D1"/>
<path d="M30.015 133.372C30.1452 133.372 30.2724 133.333 30.3806 133.261C30.4889 133.188 30.5732 133.085 30.623 132.965C30.6728 132.845 30.6858 132.713 30.6604 132.585C30.635 132.457 30.5724 132.34 30.4803 132.248C30.3883 132.156 30.271 132.093 30.1433 132.068C30.0157 132.042 29.8833 132.055 29.7631 132.105C29.6428 132.155 29.54 132.239 29.4676 132.348C29.3953 132.456 29.3567 132.583 29.3567 132.713C29.3567 132.8 29.3737 132.885 29.4067 132.965C29.4398 133.045 29.4883 133.118 29.5495 133.179C29.6106 133.24 29.6832 133.288 29.7631 133.322C29.8429 133.355 29.9286 133.372 30.015 133.372Z" fill="#7933D1"/>
<path d="M20.9024 145.914C21.0326 145.914 21.1599 145.875 21.2682 145.803C21.3764 145.73 21.4607 145.628 21.5105 145.507C21.5603 145.387 21.5733 145.255 21.5479 145.127C21.5225 144.999 21.4598 144.882 21.3678 144.79C21.2757 144.698 21.1584 144.635 21.0307 144.61C20.903 144.585 20.7706 144.598 20.6504 144.647C20.5301 144.697 20.4273 144.782 20.355 144.89C20.2827 144.998 20.2442 145.125 20.2442 145.256C20.2442 145.43 20.3136 145.598 20.4371 145.721C20.5605 145.844 20.7279 145.914 20.9024 145.914Z" fill="#7933D1"/>
<path d="M6.15833 141.16C6.29576 141.16 6.43007 141.119 6.54433 141.043C6.6586 140.966 6.74768 140.858 6.80027 140.731C6.85286 140.604 6.86663 140.464 6.83982 140.329C6.81301 140.195 6.74687 140.071 6.64969 139.974C6.55251 139.876 6.42865 139.81 6.29386 139.783C6.15907 139.757 6.01935 139.77 5.89239 139.823C5.76542 139.876 5.65694 139.965 5.58059 140.079C5.50424 140.193 5.46347 140.327 5.46347 140.465C5.46346 140.556 5.48141 140.646 5.51632 140.731C5.55124 140.815 5.60245 140.892 5.66697 140.956C5.7315 141.021 5.80808 141.072 5.89239 141.107C5.97669 141.142 6.06708 141.16 6.15833 141.16Z" fill="#7933D1"/>
<path d="M6.15831 125.693C6.30295 125.693 6.4443 125.65 6.56455 125.57C6.68479 125.489 6.77852 125.375 6.83385 125.242C6.88918 125.108 6.90367 124.961 6.87543 124.819C6.8472 124.677 6.77751 124.547 6.67522 124.445C6.57294 124.342 6.44263 124.273 6.30077 124.245C6.15891 124.216 6.01191 124.231 5.8783 124.286C5.74468 124.342 5.63046 124.435 5.55012 124.556C5.46978 124.676 5.42689 124.817 5.42691 124.962C5.42694 125.156 5.50403 125.342 5.64119 125.479C5.77835 125.616 5.96437 125.693 6.15831 125.693Z" fill="#7933D1"/>
<path d="M20.9024 120.903C21.3063 120.903 21.6338 120.575 21.6338 120.171C21.6338 119.767 21.3063 119.44 20.9024 119.44C20.4985 119.44 20.1711 119.767 20.1711 120.171C20.1711 120.575 20.4985 120.903 20.9024 120.903Z" fill="#7933D1"/>
<path d="M43.2026 134.03C43.4629 134.03 43.7175 133.953 43.934 133.808C44.1504 133.663 44.3192 133.458 44.4188 133.217C44.5184 132.977 44.5445 132.712 44.4937 132.457C44.4429 132.201 44.3175 131.967 44.1334 131.783C43.9493 131.598 43.7148 131.473 43.4594 131.422C43.204 131.371 42.9393 131.398 42.6987 131.497C42.4582 131.597 42.2526 131.766 42.1079 131.982C41.9632 132.198 41.886 132.453 41.886 132.713C41.886 132.886 41.92 133.057 41.9862 133.217C42.0523 133.377 42.1493 133.522 42.2716 133.644C42.3938 133.767 42.539 133.864 42.6987 133.93C42.8585 133.996 43.0297 134.03 43.2026 134.03Z" fill="#7933D1"/>
<path d="M38.1654 149.533C38.4257 149.533 38.6803 149.456 38.8967 149.311C39.1132 149.166 39.2819 148.961 39.3815 148.72C39.4811 148.479 39.5071 148.215 39.4563 147.959C39.4055 147.704 39.2801 147.47 39.096 147.285C38.9119 147.101 38.6774 146.976 38.422 146.925C38.1667 146.874 37.902 146.901 37.6614 147C37.4209 147.1 37.2153 147.269 37.0707 147.485C36.926 147.702 36.8488 147.956 36.8488 148.216C36.8488 148.389 36.8828 148.56 36.949 148.72C37.0152 148.88 37.1121 149.025 37.2344 149.147C37.3567 149.27 37.5018 149.367 37.6616 149.433C37.8213 149.499 37.9925 149.533 38.1654 149.533Z" fill="#7933D1"/>
<path d="M24.9777 159.114C25.2381 159.114 25.4926 159.037 25.709 158.892C25.9255 158.748 26.0942 158.542 26.1938 158.302C26.2934 158.061 26.3195 157.796 26.2686 157.541C26.2178 157.286 26.0924 157.051 25.9083 156.867C25.7242 156.683 25.4896 156.558 25.2343 156.507C24.9789 156.456 24.7143 156.482 24.4737 156.582C24.2332 156.681 24.0276 156.85 23.883 157.067C23.7383 157.283 23.6611 157.538 23.6611 157.798C23.6611 157.971 23.6952 158.142 23.7614 158.302C23.8276 158.461 23.9245 158.607 24.0468 158.729C24.169 158.851 24.3142 158.948 24.4739 159.014C24.6337 159.08 24.8048 159.114 24.9777 159.114Z" fill="#7933D1"/>
<path d="M8.6769 159.151C8.94451 159.151 9.2061 159.071 9.4286 158.923C9.6511 158.774 9.8245 158.563 9.92689 158.315C10.0293 158.068 10.0561 157.796 10.0038 157.534C9.9516 157.271 9.82275 157.03 9.63351 156.841C9.44426 156.652 9.20315 156.523 8.94068 156.471C8.6782 156.418 8.40617 156.445 8.15894 156.548C7.91171 156.65 7.70038 156.824 7.55172 157.046C7.40307 157.269 7.32377 157.53 7.32379 157.798C7.32378 157.975 7.35877 158.151 7.42677 158.316C7.49477 158.48 7.59443 158.629 7.72008 158.755C7.84574 158.88 7.99491 158.98 8.15908 159.048C8.32325 159.116 8.49921 159.151 8.6769 159.151Z" fill="#7933D1"/>
<path d="M8.67694 109.019C8.95178 109.019 9.22044 108.937 9.44895 108.784C9.67746 108.632 9.85552 108.415 9.96068 108.161C10.0658 107.907 10.0933 107.627 10.0397 107.358C9.98608 107.088 9.85373 106.841 9.65938 106.646C9.46503 106.452 9.21742 106.32 8.94786 106.266C8.6783 106.212 8.39889 106.24 8.14498 106.345C7.89108 106.45 7.67406 106.629 7.52139 106.857C7.36871 107.086 7.28727 107.354 7.28729 107.629C7.2873 107.812 7.32322 107.992 7.39307 108.161C7.46291 108.329 7.56525 108.483 7.6943 108.612C7.82334 108.741 7.9766 108.843 8.14519 108.913C8.31379 108.983 8.49446 109.019 8.67694 109.019Z" fill="#7933D1"/>
<path d="M24.9777 108.982C25.2453 108.982 25.5069 108.903 25.7294 108.754C25.9519 108.605 26.1253 108.394 26.2277 108.147C26.3301 107.899 26.3569 107.627 26.3046 107.365C26.2524 107.102 26.1236 106.861 25.9343 106.672C25.7451 106.483 25.504 106.354 25.2415 106.302C24.979 106.25 24.707 106.276 24.4598 106.379C24.2125 106.481 24.0013 106.655 23.8526 106.877C23.704 107.1 23.6246 107.361 23.6246 107.629C23.6246 107.807 23.6596 107.983 23.7276 108.147C23.7956 108.311 23.8952 108.46 24.0209 108.586C24.1466 108.711 24.2958 108.811 24.46 108.879C24.6241 108.947 24.8 108.982 24.9777 108.982Z" fill="#7933D1"/>
<path d="M38.1654 118.563C38.433 118.563 38.6946 118.484 38.9171 118.335C39.1396 118.187 39.313 117.975 39.4154 117.728C39.5177 117.481 39.5445 117.209 39.4923 116.946C39.4401 116.684 39.3112 116.443 39.122 116.254C38.9327 116.064 38.6916 115.935 38.4291 115.883C38.1667 115.831 37.8946 115.858 37.6474 115.96C37.4002 116.063 37.1888 116.236 37.0402 116.459C36.8915 116.681 36.8122 116.943 36.8123 117.21C36.8122 117.388 36.8472 117.564 36.9152 117.728C36.9832 117.892 37.0829 118.042 37.2085 118.167C37.3342 118.293 37.4834 118.392 37.6475 118.46C37.8117 118.528 37.9877 118.563 38.1654 118.563Z" fill="#7933D1"/>
<path d="M56.3902 134.688C56.7808 134.688 57.1626 134.572 57.4873 134.355C57.812 134.138 58.0651 133.83 58.2146 133.469C58.364 133.108 58.4032 132.711 58.327 132.328C58.2508 131.945 58.0627 131.593 57.7865 131.317C57.5103 131.041 57.1585 130.853 56.7754 130.777C56.3924 130.7 55.9953 130.739 55.6345 130.889C55.2737 131.038 54.9652 131.291 54.7483 131.616C54.5313 131.941 54.4155 132.323 54.4155 132.713C54.4155 132.973 54.4665 133.229 54.5658 133.469C54.665 133.709 54.8105 133.926 54.9938 134.11C55.1772 134.293 55.3949 134.439 55.6345 134.538C55.8741 134.637 56.1309 134.688 56.3902 134.688Z" fill="#7933D1"/>
<path d="M52.9698 150.78C54.0604 150.78 54.9445 149.896 54.9445 148.805C54.9445 147.714 54.0604 146.83 52.9698 146.83C51.8792 146.83 50.9951 147.714 50.9951 148.805C50.9951 149.896 51.8792 150.78 52.9698 150.78Z" fill="#7933D1"/>
<path d="M43.2999 164.089C43.6905 164.089 44.0723 163.973 44.397 163.756C44.7218 163.539 44.9749 163.231 45.1244 162.87C45.2738 162.509 45.3129 162.112 45.2367 161.729C45.1605 161.346 44.9725 160.994 44.6963 160.718C44.4201 160.442 44.0683 160.254 43.6852 160.178C43.3022 160.101 42.9051 160.14 42.5443 160.29C42.1835 160.439 41.875 160.693 41.6581 161.017C41.4411 161.342 41.3253 161.724 41.3253 162.114C41.3252 162.374 41.3763 162.63 41.4756 162.87C41.5748 163.11 41.7203 163.327 41.9036 163.511C42.087 163.694 42.3047 163.84 42.5442 163.939C42.7838 164.038 43.0406 164.089 43.2999 164.089Z" fill="#7933D1"/>
<path d="M29.0529 172.315C29.4434 172.315 29.8252 172.199 30.15 171.982C30.4747 171.765 30.7278 171.456 30.8772 171.096C31.0267 170.735 31.0659 170.338 30.9897 169.955C30.9135 169.572 30.7253 169.22 30.4492 168.944C30.173 168.667 29.8212 168.479 29.4381 168.403C29.055 168.327 28.658 168.366 28.2972 168.516C27.9363 168.665 27.6279 168.918 27.4109 169.243C27.1939 169.568 27.0782 169.949 27.0782 170.34C27.0782 170.599 27.1292 170.856 27.2284 171.096C27.3276 171.335 27.4731 171.553 27.6565 171.736C27.8399 171.92 28.0576 172.065 28.2972 172.164C28.5368 172.264 28.7935 172.315 29.0529 172.315Z" fill="#7933D1"/>
<path d="M12.6918 174.071C13.8026 174.071 14.703 173.17 14.703 172.06C14.703 170.949 13.8026 170.048 12.6918 170.048C11.581 170.048 10.6805 170.949 10.6805 172.06C10.6805 173.17 11.581 174.071 12.6918 174.071Z" fill="#7933D1"/>
<path d="M12.6918 95.415C13.0968 95.415 13.4927 95.2949 13.8294 95.0699C14.1662 94.8448 14.4287 94.525 14.5837 94.1508C14.7387 93.7767 14.7792 93.3649 14.7002 92.9677C14.6212 92.5705 14.4262 92.2056 14.1398 91.9192C13.8534 91.6328 13.4886 91.4378 13.0913 91.3587C12.6941 91.2797 12.2823 91.3203 11.9081 91.4753C11.5339 91.6303 11.2141 91.8927 10.9891 92.2295C10.7641 92.5662 10.644 92.9622 10.644 93.3672C10.644 93.9103 10.8598 94.4311 11.2438 94.8152C11.6279 95.1992 12.1487 95.415 12.6918 95.415Z" fill="#7933D1"/>
<path d="M29.0529 97.1347C29.4579 97.1347 29.8539 97.0146 30.1906 96.7896C30.5274 96.5645 30.7899 96.2447 30.9449 95.8705C31.0999 95.4963 31.1405 95.0845 31.0615 94.6873C30.9825 94.29 30.7874 93.9251 30.501 93.6387C30.2146 93.3523 29.8497 93.1572 29.4524 93.0782C29.0552 92.9992 28.6434 93.0398 28.2692 93.1948C27.895 93.3498 27.5752 93.6123 27.3502 93.9491C27.1251 94.2859 27.005 94.6818 27.005 95.0869C27.0051 95.63 27.2209 96.1508 27.6049 96.5349C27.9889 96.9189 28.5098 97.1346 29.0529 97.1347Z" fill="#7933D1"/>
<path d="M43.3 105.324C43.6978 105.324 44.0867 105.206 44.4174 104.985C44.7482 104.764 45.0061 104.45 45.1583 104.082C45.3106 103.715 45.3504 103.31 45.2728 102.92C45.1952 102.53 45.0036 102.171 44.7223 101.89C44.441 101.609 44.0827 101.417 43.6925 101.34C43.3023 101.262 42.8979 101.302 42.5303 101.454C42.1628 101.606 41.8487 101.864 41.6277 102.195C41.4067 102.526 41.2887 102.915 41.2888 103.312C41.2888 103.846 41.5007 104.357 41.8778 104.735C42.255 105.112 42.7666 105.324 43.3 105.324Z" fill="#7933D1"/>
<path d="M52.9698 118.633C53.3676 118.633 53.7565 118.515 54.0873 118.294C54.4181 118.073 54.6759 117.759 54.8282 117.391C54.9804 117.024 55.0202 116.619 54.9426 116.229C54.865 115.839 54.6735 115.481 54.3922 115.199C54.1109 114.918 53.7525 114.727 53.3623 114.649C52.9721 114.571 52.5677 114.611 52.2001 114.763C51.8326 114.916 51.5185 115.173 51.2975 115.504C51.0765 115.835 50.9585 116.224 50.9586 116.622C50.9586 117.155 51.1705 117.667 51.5476 118.044C51.9248 118.421 52.4364 118.633 52.9698 118.633Z" fill="#7933D1"/>
<path d="M69.5779 135.383C71.0522 135.383 72.2474 134.188 72.2474 132.713C72.2474 131.239 71.0522 130.044 69.5779 130.044C68.1035 130.044 66.9083 131.239 66.9083 132.713C66.9083 134.188 68.1035 135.383 69.5779 135.383Z" fill="#7933D1"/>
<path d="M67.4851 151.639C68.9346 151.368 69.8906 149.975 69.6206 148.525C69.3505 147.076 67.9566 146.12 66.5072 146.39C65.0577 146.66 64.1017 148.054 64.3718 149.503C64.6418 150.953 66.0357 151.909 67.4851 151.639Z" fill="#7933D1"/>
<path d="M59.9859 166.345C61.436 166.079 62.3955 164.687 62.129 163.237C61.8626 161.787 60.4711 160.827 59.021 161.094C57.5709 161.36 56.6114 162.752 56.8778 164.202C57.1443 165.652 58.5358 166.612 59.9859 166.345Z" fill="#7933D1"/>
<path d="M47.8333 178.059C49.3076 178.059 50.5028 176.864 50.5028 175.39C50.5028 173.915 49.3076 172.72 47.8333 172.72C46.3589 172.72 45.1638 173.915 45.1638 175.39C45.1638 176.864 46.3589 178.059 47.8333 178.059Z" fill="#7933D1"/>
<path d="M33.1282 185.552C33.6561 185.552 34.1723 185.395 34.6113 185.102C35.0502 184.808 35.3924 184.391 35.5944 183.904C35.7964 183.416 35.8493 182.879 35.7462 182.361C35.6432 181.844 35.3889 181.368 35.0156 180.995C34.6423 180.621 34.1666 180.367 33.6488 180.264C33.1309 180.161 32.5942 180.214 32.1064 180.416C31.6187 180.618 31.2018 180.96 30.9085 181.399C30.6152 181.838 30.4586 182.354 30.4586 182.882C30.4587 183.59 30.7399 184.269 31.2406 184.77C31.7412 185.27 32.4202 185.552 33.1282 185.552Z" fill="#7933D1"/>
<path d="M16.8274 188.134C17.3553 188.134 17.8715 187.977 18.3105 187.684C18.7495 187.39 19.0916 186.973 19.2937 186.486C19.4957 185.998 19.5486 185.461 19.4456 184.943C19.3426 184.425 19.0883 183.95 18.7149 183.576C18.3416 183.203 17.866 182.949 17.3481 182.846C16.8303 182.743 16.2935 182.796 15.8057 182.998C15.3179 183.2 14.901 183.542 14.6077 183.981C14.3143 184.42 14.1577 184.936 14.1577 185.464C14.1577 185.815 14.2268 186.162 14.361 186.486C14.4951 186.809 14.6918 187.104 14.9397 187.352C15.1876 187.6 15.4818 187.796 15.8057 187.93C16.1296 188.064 16.4768 188.134 16.8274 188.134Z" fill="#7933D1"/>
<path d="M0.526499 185.552C1.05447 185.552 1.57063 185.395 2.0096 185.102C2.44858 184.808 2.79072 184.391 2.99274 183.904C3.19477 183.416 3.2476 182.879 3.14458 182.361C3.04156 181.844 2.78729 181.368 2.41395 180.995C2.0406 180.621 1.56495 180.367 1.04712 180.264C0.529292 180.161 -0.00743818 180.214 -0.49521 180.416C-0.982982 180.618 -1.39988 180.96 -1.69319 181.399C-1.9865 181.838 -2.14305 182.354 -2.14304 182.882C-2.14304 183.233 -2.07397 183.58 -1.93981 183.904C-1.80565 184.228 -1.60906 184.522 -1.36116 184.77C-1.11326 185.018 -0.818957 185.214 -0.49507 185.349C-0.171183 185.483 0.175935 185.552 0.526499 185.552Z" fill="#7933D1"/>
<path d="M1.15073 85.1776C2.60495 84.8328 3.50434 83.3745 3.15957 81.9202C2.8148 80.466 1.35644 79.5666 -0.0977757 79.9114C-1.55199 80.2562 -2.45138 81.7145 -2.10661 83.1687C-1.76184 84.623 -0.303486 85.5223 1.15073 85.1776Z" fill="#7933D1"/>
<path d="M19.072 81.4742C19.9068 80.2345 19.5785 78.5529 18.3388 77.7181C17.0991 76.8834 15.4174 77.2117 14.5827 78.4514C13.748 79.6911 14.0763 81.3727 15.3159 82.2075C16.5556 83.0422 18.2373 82.7139 19.072 81.4742Z" fill="#7933D1"/>
<path d="M33.7524 85.1776C35.2066 84.8328 36.106 83.3745 35.7612 81.9202C35.4165 80.466 33.9581 79.5666 32.5039 79.9114C31.0497 80.2562 30.1503 81.7145 30.495 83.1687C30.8398 84.623 32.2982 85.5223 33.7524 85.1776Z" fill="#7933D1"/>
<path d="M49.7468 91.9507C50.8036 90.8939 50.8036 89.1805 49.7468 88.1237C48.69 87.0669 46.9766 87.0669 45.9198 88.1237C44.863 89.1805 44.863 90.8939 45.9198 91.9507C46.9766 93.0075 48.69 93.0075 49.7468 91.9507Z" fill="#7933D1"/>
<path d="M59.9299 104.343C61.3853 104.107 62.3742 102.736 62.1388 101.281C61.9033 99.8255 60.5325 98.8365 59.0771 99.072C57.6217 99.3074 56.6327 100.678 56.8682 102.134C57.1036 103.589 58.4744 104.578 59.9299 104.343Z" fill="#7933D1"/>
<path d="M67.5002 119.034C68.948 118.756 69.8961 117.356 69.6177 115.908C69.3393 114.46 67.9398 113.512 66.492 113.791C65.0442 114.069 64.0962 115.469 64.3746 116.916C64.653 118.364 66.0523 119.312 67.5002 119.034Z" fill="#7933D1"/>
<path d="M82.7655 136.041C83.4237 136.041 84.0671 135.846 84.6143 135.48C85.1616 135.115 85.5881 134.595 85.84 133.987C86.0919 133.379 86.1578 132.71 86.0294 132.064C85.9011 131.419 85.5841 130.826 85.1187 130.36C84.6533 129.895 84.0604 129.578 83.4149 129.45C82.7693 129.321 82.1003 129.387 81.4922 129.639C80.8841 129.891 80.3644 130.317 79.9987 130.865C79.6331 131.412 79.4379 132.055 79.4379 132.713C79.4379 133.596 79.7884 134.442 80.4125 135.066C81.0365 135.69 81.8829 136.041 82.7655 136.041Z" fill="#7933D1"/>
<path d="M80.6939 152.439C81.3521 152.439 81.9955 152.244 82.5427 151.879C83.09 151.513 83.5164 150.993 83.7683 150.385C84.0202 149.777 84.0861 149.108 83.9577 148.462C83.8293 147.817 83.5124 147.224 83.047 146.759C82.5816 146.293 81.9886 145.976 81.3431 145.848C80.6976 145.719 80.0285 145.785 79.4204 146.037C78.8124 146.289 78.2926 146.716 77.927 147.263C77.5613 147.81 77.3662 148.453 77.3661 149.112C77.3661 149.549 77.4522 149.981 77.6194 150.385C77.7867 150.789 78.0317 151.156 78.3407 151.465C78.6498 151.774 79.0167 152.019 79.4204 152.186C79.8242 152.353 80.2569 152.439 80.6939 152.439Z" fill="#7933D1"/>
<path d="M74.6094 167.807C75.2675 167.807 75.9109 167.612 76.4582 167.246C77.0054 166.881 77.432 166.361 77.6839 165.753C77.9357 165.145 78.0017 164.476 77.8733 163.83C77.7449 163.185 77.428 162.592 76.9626 162.126C76.4972 161.661 75.9043 161.344 75.2588 161.216C74.6133 161.087 73.9441 161.153 73.336 161.405C72.728 161.657 72.2083 162.083 71.8426 162.63C71.4769 163.178 71.2817 163.821 71.2817 164.479C71.2817 165.362 71.6323 166.208 72.2563 166.832C72.8804 167.456 73.7268 167.807 74.6094 167.807Z" fill="#7933D1"/>
<path d="M64.8941 181.179C65.5523 181.179 66.1957 180.984 66.7429 180.618C67.2902 180.253 67.7167 179.733 67.9686 179.125C68.2204 178.517 68.2863 177.848 68.1579 177.202C68.0295 176.557 67.7126 175.964 67.2472 175.498C66.7818 175.033 66.1889 174.716 65.5434 174.587C64.8978 174.459 64.2287 174.525 63.6206 174.777C63.0126 175.029 62.4928 175.455 62.1272 176.002C61.7615 176.55 61.5663 177.193 61.5663 177.851C61.5663 178.734 61.9169 179.58 62.541 180.204C63.1651 180.828 64.0115 181.179 64.8941 181.179Z" fill="#7933D1"/>
<path d="M52.1588 191.715C52.817 191.715 53.4603 191.52 54.0076 191.154C54.5548 190.788 54.9813 190.268 55.2332 189.66C55.485 189.052 55.5509 188.383 55.4225 187.738C55.2941 187.092 54.9773 186.499 54.5119 186.034C54.0465 185.568 53.4535 185.252 52.808 185.123C52.1624 184.995 51.4934 185.061 50.8853 185.312C50.2772 185.564 49.7575 185.991 49.3918 186.538C49.0262 187.085 48.831 187.729 48.831 188.387C48.831 188.824 48.917 189.257 49.0842 189.66C49.2515 190.064 49.4966 190.431 49.8056 190.74C50.1146 191.049 50.4815 191.294 50.8853 191.461C51.2891 191.629 51.7218 191.715 52.1588 191.715Z" fill="#7933D1"/>
<path d="M37.2033 198.752C37.8615 198.752 38.5049 198.557 39.0521 198.191C39.5994 197.826 40.0259 197.306 40.2778 196.698C40.5297 196.09 40.5956 195.421 40.4672 194.775C40.3388 194.13 40.0219 193.537 39.5565 193.071C39.0911 192.606 38.4981 192.289 37.8526 192.16C37.2071 192.032 36.5379 192.098 35.9299 192.35C35.3218 192.602 34.8021 193.028 34.4364 193.576C34.0708 194.123 33.8757 194.766 33.8757 195.424C33.8757 196.307 34.2262 197.153 34.8503 197.777C35.4743 198.401 36.3208 198.752 37.2033 198.752Z" fill="#7933D1"/>
<path d="M20.9675 201.849C21.6257 201.849 22.2691 201.654 22.8164 201.288C23.3636 200.923 23.7902 200.403 24.0421 199.795C24.2939 199.187 24.3598 198.518 24.2314 197.872C24.103 197.227 23.7861 196.634 23.3207 196.168C22.8553 195.703 22.2623 195.386 21.6168 195.258C20.9712 195.129 20.3022 195.195 19.6941 195.447C19.086 195.699 18.5663 196.125 18.2006 196.673C17.835 197.22 17.6398 197.863 17.6398 198.522C17.6398 199.404 17.9904 200.251 18.6145 200.875C19.2385 201.499 20.0849 201.849 20.9675 201.849Z" fill="#7933D1"/>
<path d="M4.47174 200.812C5.12993 200.812 5.77336 200.616 6.32062 200.251C6.86789 199.885 7.29445 199.365 7.54632 198.757C7.7982 198.149 7.86409 197.48 7.73568 196.835C7.60728 196.189 7.29034 195.596 6.82493 195.131C6.35952 194.665 5.76651 194.348 5.12096 194.22C4.47542 194.091 3.80632 194.157 3.19823 194.409C2.59014 194.661 2.07036 195.088 1.70469 195.635C1.33903 196.182 1.14388 196.826 1.14389 197.484C1.14389 197.921 1.23 198.354 1.39724 198.757C1.56447 199.161 1.8096 199.528 2.11863 199.837C2.42765 200.146 2.79447 200.391 3.19823 200.558C3.60199 200.726 4.03472 200.812 4.47174 200.812Z" fill="#7933D1"/>
<path d="M7.12003 70.0768C8.29844 68.6141 8.06804 66.4731 6.6054 65.2947C5.14277 64.1163 3.00178 64.3467 1.82337 65.8094C0.644962 67.272 0.875364 69.413 2.338 70.5914C3.80063 71.7698 5.94162 71.5394 7.12003 70.0768Z" fill="#7933D1"/>
<path d="M20.9675 70.2696C21.6329 70.2697 22.2834 70.0724 22.8367 69.7027C23.39 69.333 23.8212 68.8076 24.0759 68.1929C24.3306 67.5781 24.3972 66.9016 24.2674 66.249C24.1377 65.5963 23.8173 64.9968 23.3468 64.5263C22.8762 64.0558 22.2767 63.7353 21.6241 63.6055C20.9715 63.4757 20.295 63.5423 19.6802 63.7969C19.0654 64.0515 18.54 64.4828 18.1703 65.0361C17.8006 65.5893 17.6033 66.2398 17.6033 66.9052C17.6033 67.7975 17.9577 68.6532 18.5886 69.2841C19.2196 69.9151 20.0752 70.2696 20.9675 70.2696Z" fill="#7933D1"/>
<path d="M37.2033 73.3668C39.0614 73.3668 40.5677 71.8605 40.5677 70.0024C40.5677 68.1443 39.0614 66.638 37.2033 66.638C35.3452 66.638 33.8389 68.1443 33.8389 70.0024C33.8389 71.8605 35.3452 73.3668 37.2033 73.3668Z" fill="#7933D1"/>
<path d="M52.1588 80.4041C52.8242 80.404 53.4746 80.2067 54.0278 79.837C54.5811 79.4673 55.0123 78.9419 55.2669 78.3271C55.5215 77.7124 55.5881 77.0359 55.4583 76.3833C55.3285 75.7307 55.0081 75.1313 54.5375 74.6608C54.067 74.1903 53.4676 73.8699 52.8149 73.7401C52.1623 73.6103 51.4859 73.677 50.8711 73.9316C50.2564 74.1863 49.731 74.6175 49.3613 75.1708C48.9916 75.724 48.7944 76.3745 48.7944 77.0399C48.7944 77.4817 48.8814 77.9192 49.0505 78.3273C49.2196 78.7355 49.4674 79.1064 49.7798 79.4188C50.0922 79.7312 50.4631 79.979 50.8713 80.148C51.2795 80.3171 51.717 80.4041 52.1588 80.4041Z" fill="#7933D1"/>
<path d="M64.8941 90.9398C65.5595 90.9398 66.21 90.7425 66.7633 90.3728C67.3165 90.0031 67.7477 89.4777 68.0023 88.8629C68.2569 88.2482 68.3236 87.5717 68.1937 86.9191C68.0639 86.2665 67.7434 85.667 67.2729 85.1966C66.8024 84.7261 66.2029 84.4057 65.5503 84.2759C64.8977 84.1461 64.2212 84.2127 63.6065 84.4674C62.9918 84.722 62.4664 85.1533 62.0967 85.7065C61.7271 86.2598 61.5297 86.9102 61.5298 87.5756C61.5298 88.4679 61.8843 89.3236 62.5152 89.9545C63.1461 90.5854 64.0019 90.9399 64.8941 90.9398Z" fill="#7933D1"/>
<path d="M74.6093 104.312C75.2747 104.312 75.9252 104.114 76.4784 103.745C77.0317 103.375 77.4629 102.85 77.7176 102.235C77.9722 101.62 78.0389 100.944 77.9091 100.291C77.7793 99.6385 77.4589 99.039 76.9884 98.5685C76.5179 98.098 75.9185 97.7776 75.2659 97.6477C74.6133 97.5179 73.9369 97.5845 73.3221 97.8391C72.7073 98.0937 72.1819 98.5249 71.8122 99.0782C71.4425 99.6314 71.2452 100.282 71.2451 100.947C71.2451 101.389 71.3322 101.827 71.5012 102.235C71.6703 102.643 71.9181 103.014 72.2305 103.326C72.5428 103.639 72.9137 103.886 73.3219 104.056C73.7301 104.225 74.1675 104.312 74.6093 104.312Z" fill="#7933D1"/>
<path d="M80.6939 119.643C81.3521 119.643 81.9955 119.448 82.5427 119.082C83.09 118.716 83.5165 118.197 83.7684 117.589C84.0202 116.98 84.0861 116.311 83.9577 115.666C83.8292 115.02 83.5123 114.427 83.0469 113.962C82.5815 113.497 81.9885 113.18 81.343 113.051C80.6975 112.923 80.0284 112.989 79.4203 113.241C78.8123 113.493 78.2925 113.919 77.9269 114.466C77.5612 115.014 77.3661 115.657 77.3661 116.315C77.3661 116.752 77.4522 117.185 77.6194 117.589C77.7867 117.992 78.0318 118.359 78.3408 118.668C78.6498 118.977 79.0167 119.222 79.4205 119.39C79.8242 119.557 80.2569 119.643 80.6939 119.643Z" fill="#7933D1"/>
<path d="M95.9531 136.7C96.7415 136.7 97.5121 136.466 98.1676 136.028C98.8231 135.59 99.334 134.967 99.6358 134.239C99.9375 133.511 100.016 132.709 99.8627 131.936C99.7089 131.163 99.3293 130.452 98.7718 129.895C98.2144 129.337 97.5042 128.958 96.7309 128.804C95.9577 128.65 95.1562 128.729 94.4279 129.031C93.6995 129.332 93.077 129.843 92.639 130.499C92.201 131.154 91.9672 131.925 91.9672 132.713C91.9672 133.771 92.3871 134.784 93.1346 135.532C93.8821 136.279 94.896 136.699 95.9531 136.7Z" fill="#7933D1"/>
<path d="M94.2241 153.151C95.0125 153.151 95.7831 152.917 96.4386 152.479C97.0941 152.041 97.6051 151.418 97.9068 150.69C98.2085 149.962 98.2875 149.16 98.1337 148.387C97.9799 147.614 97.6002 146.904 97.0428 146.346C96.4854 145.789 95.7751 145.409 95.0019 145.255C94.2287 145.101 93.4273 145.18 92.6989 145.482C91.9705 145.784 91.348 146.295 90.91 146.95C90.4719 147.606 90.2381 148.376 90.2381 149.165C90.2381 150.222 90.6581 151.236 91.4056 151.983C92.1531 152.731 93.1669 153.151 94.2241 153.151Z" fill="#7933D1"/>
<path d="M89.1125 168.883C91.3138 168.883 93.0984 167.098 93.0984 164.897C93.0984 162.695 91.3138 160.911 89.1125 160.911C86.9111 160.911 85.1265 162.695 85.1265 164.897C85.1265 167.098 86.9111 168.883 89.1125 168.883Z" fill="#7933D1"/>
<path d="M80.8414 183.208C81.6298 183.209 82.4005 182.975 83.056 182.537C83.7115 182.099 84.2225 181.476 84.5242 180.748C84.8259 180.02 84.9048 179.218 84.751 178.445C84.5972 177.672 84.2176 176.961 83.6601 176.404C83.1027 175.846 82.3924 175.467 81.6192 175.313C80.8459 175.159 80.0445 175.238 79.3161 175.54C78.5878 175.842 77.9652 176.352 77.5272 177.008C77.0892 177.663 76.8554 178.434 76.8555 179.223C76.8555 179.746 76.9586 180.264 77.1589 180.748C77.3592 181.232 77.6528 181.671 78.0229 182.041C78.3931 182.411 78.8325 182.705 79.3161 182.905C79.7997 183.105 80.318 183.208 80.8414 183.208Z" fill="#7933D1"/>
<path d="M69.7728 195.501C71.9742 195.501 73.7588 193.717 73.7588 191.515C73.7588 189.314 71.9742 187.529 69.7728 187.529C67.5714 187.529 65.7869 189.314 65.7869 191.515C65.7869 193.717 67.5714 195.501 69.7728 195.501Z" fill="#7933D1"/>
<path d="M56.3902 205.225C57.1786 205.225 57.9493 204.991 58.6048 204.553C59.2603 204.115 59.7713 203.492 60.073 202.764C60.3747 202.036 60.4536 201.234 60.2999 200.461C60.1461 199.688 59.7664 198.977 59.209 198.42C58.6515 197.862 57.9413 197.483 57.1681 197.329C56.3949 197.175 55.5934 197.254 54.865 197.556C54.1367 197.857 53.5141 198.368 53.0761 199.024C52.6381 199.679 52.4043 200.45 52.4042 201.238C52.4042 202.296 52.8242 203.309 53.5717 204.057C54.3192 204.805 55.333 205.224 56.3902 205.225Z" fill="#7933D1"/>
<path d="M41.2786 211.953C42.0669 211.952 42.8376 211.719 43.493 211.281C44.1485 210.843 44.6594 210.22 44.961 209.492C45.2627 208.763 45.3416 207.962 45.1878 207.189C45.0339 206.416 44.6543 205.705 44.0968 205.148C43.5394 204.591 42.8292 204.211 42.056 204.057C41.2828 203.903 40.4813 203.982 39.753 204.284C39.0247 204.586 38.4022 205.097 37.9642 205.752C37.5262 206.408 37.2924 207.178 37.2924 207.967C37.2924 208.49 37.3956 209.008 37.5959 209.492C37.7962 209.976 38.0898 210.415 38.4599 210.785C38.8301 211.155 39.2696 211.449 39.7532 211.649C40.2368 211.849 40.7551 211.953 41.2786 211.953Z" fill="#7933D1"/>
<path d="M25.0982 215.392C25.8865 215.392 26.6572 215.158 27.3127 214.72C27.9682 214.282 28.4791 213.66 28.7808 212.931C29.0825 212.203 29.1615 211.402 29.0077 210.628C28.8539 209.855 28.4742 209.145 27.9168 208.587C27.3593 208.03 26.6491 207.65 25.8759 207.496C25.1027 207.343 24.3013 207.422 23.5729 207.723C22.8445 208.025 22.222 208.536 21.784 209.191C21.3459 209.847 21.1121 210.617 21.1121 211.406C21.1122 212.463 21.5321 213.477 22.2796 214.224C23.0272 214.972 24.041 215.392 25.0982 215.392Z" fill="#7933D1"/>
<path d="M8.55641 215.392C9.34477 215.392 10.1154 215.158 10.7709 214.72C11.4264 214.282 11.9373 213.66 12.239 212.931C12.5407 212.203 12.6196 211.401 12.4658 210.628C12.312 209.855 11.9324 209.145 11.3749 208.587C10.8175 208.03 10.1072 207.65 9.33402 207.496C8.56081 207.343 7.75931 207.422 7.03096 207.723C6.3026 208.025 5.68007 208.536 5.24207 209.191C4.80407 209.847 4.57033 210.617 4.57031 211.406C4.5703 211.929 4.67339 212.448 4.87371 212.931C5.07403 213.415 5.36762 213.854 5.73777 214.224C6.10792 214.595 6.5474 214.888 7.03103 215.089C7.51465 215.289 8.03294 215.392 8.55641 215.392Z" fill="#7933D1"/>
<path d="M8.55638 58.08C9.35919 58.08 10.144 57.8419 10.8115 57.3959C11.479 56.9499 11.9993 56.3159 12.3065 55.5742C12.6137 54.8325 12.6941 54.0163 12.5374 53.229C12.3808 52.4416 11.9942 51.7183 11.4265 51.1506C10.8589 50.583 10.1357 50.1964 9.34826 50.0397C8.56088 49.8831 7.7447 49.9635 7.00299 50.2707C6.26128 50.5779 5.6273 51.0982 5.18127 51.7657C4.73524 52.4332 4.49721 53.218 4.49719 54.0208C4.49717 54.5539 4.60213 55.0817 4.80612 55.5742C5.01011 56.0667 5.30906 56.5142 5.686 56.8912C6.06294 57.2681 6.51049 57.5671 7.00299 57.7711C7.49549 57.9751 8.0233 58.08 8.55638 58.08Z" fill="#7933D1"/>
<path d="M25.0981 58.08C25.901 58.08 26.6857 57.842 27.3533 57.396C28.0208 56.95 28.5411 56.316 28.8483 55.5743C29.1556 54.8326 29.236 54.0165 29.0794 53.2291C28.9228 52.4417 28.5362 51.7184 27.9685 51.1507C27.4008 50.583 26.6776 50.1964 25.8902 50.0397C25.1028 49.8831 24.2867 49.9635 23.545 50.2707C22.8032 50.5779 22.1693 51.0981 21.7232 51.7657C21.2772 52.4332 21.0391 53.218 21.0391 54.0208C21.0391 54.5538 21.144 55.0817 21.348 55.5742C21.552 56.0667 21.851 56.5141 22.2279 56.8911C22.6048 57.268 23.0523 57.567 23.5447 57.771C24.0372 57.975 24.5651 58.08 25.0981 58.08Z" fill="#7933D1"/>
<path d="M41.2786 61.5192C42.0814 61.5192 42.8662 61.2811 43.5337 60.8351C44.2012 60.389 44.7215 59.7551 45.0287 59.0134C45.3359 58.2716 45.4163 57.4555 45.2596 56.6681C45.103 55.8807 44.7164 55.1574 44.1487 54.5898C43.581 54.0221 42.8577 53.6355 42.0703 53.4789C41.2829 53.3223 40.4668 53.4027 39.7251 53.71C38.9834 54.0172 38.3494 54.5375 37.9034 55.205C37.4574 55.8726 37.2193 56.6574 37.2193 57.4602C37.2193 57.9932 37.3243 58.5211 37.5283 59.0136C37.7323 59.506 38.0313 59.9535 38.4083 60.3304C38.7852 60.7074 39.2327 61.0064 39.7252 61.2103C40.2177 61.4143 40.7455 61.5193 41.2786 61.5192Z" fill="#7933D1"/>
<path d="M56.3902 68.2109C57.1858 68.2109 57.9636 67.975 58.6251 67.533C59.2866 67.091 59.8022 66.4628 60.1067 65.7278C60.4112 64.9927 60.4909 64.1839 60.3357 63.4036C60.1805 62.6233 59.7973 61.9066 59.2348 61.344C58.6722 60.7814 57.9555 60.3983 57.1752 60.243C56.3949 60.0878 55.5861 60.1674 54.8511 60.4719C54.116 60.7763 53.4878 61.2919 53.0457 61.9534C52.6037 62.6149 52.3678 63.3926 52.3677 64.1882C52.3677 64.7165 52.4717 65.2396 52.6739 65.7276C52.876 66.2157 53.1723 66.6591 53.5458 67.0327C53.9194 67.4062 54.3628 67.7025 54.8509 67.9047C55.3389 68.1069 55.862 68.2109 56.3902 68.2109Z" fill="#7933D1"/>
<path d="M69.7728 77.9339C70.5684 77.9339 71.3461 77.698 72.0076 77.256C72.6691 76.814 73.1848 76.1858 73.4893 75.4507C73.7937 74.7157 73.8734 73.9069 73.7182 73.1266C73.563 72.3462 73.1799 71.6295 72.6173 71.0669C72.0547 70.5043 71.3379 70.1212 70.5576 69.966C69.7773 69.8108 68.9685 69.8905 68.2334 70.195C67.4984 70.4994 66.8702 71.015 66.4282 71.6766C65.9862 72.3381 65.7503 73.1158 65.7503 73.9114C65.7503 74.9782 66.1741 76.0014 66.9285 76.7557C67.6828 77.5101 68.706 77.9339 69.7728 77.9339Z" fill="#7933D1"/>
<path d="M80.8414 90.227C81.637 90.227 82.4148 89.9911 83.0763 89.5491C83.7378 89.1071 84.2535 88.4789 84.558 87.7438C84.8624 87.0088 84.9421 86.2 84.7869 85.4197C84.6317 84.6394 84.2486 83.9226 83.686 83.36C83.1235 82.7974 82.4068 82.4143 81.6265 82.2591C80.8462 82.1038 80.0374 82.1835 79.3023 82.4879C78.5673 82.7924 77.939 83.3079 77.497 83.9694C77.055 84.6309 76.819 85.4087 76.819 86.2042C76.819 86.7325 76.923 87.2556 77.1251 87.7436C77.3273 88.2317 77.6236 88.6752 77.9971 89.0487C78.3706 89.4222 78.814 89.7186 79.302 89.9207C79.7901 90.1229 80.3132 90.227 80.8414 90.227Z" fill="#7933D1"/>
<path d="M89.1124 104.553C89.908 104.553 90.6857 104.317 91.3472 103.875C92.0087 103.433 92.5243 102.804 92.8287 102.069C93.1332 101.334 93.2129 100.525 93.0577 99.7451C92.9024 98.9648 92.5193 98.248 91.9567 97.6855C91.3941 97.1229 90.6774 96.7398 89.897 96.5846C89.1167 96.4294 88.3079 96.5091 87.5729 96.8136C86.8379 97.118 86.2096 97.6336 85.7676 98.2952C85.3256 98.9567 85.0897 99.7344 85.0897 100.53C85.0897 101.058 85.1938 101.581 85.396 102.069C85.5982 102.557 85.8945 103.001 86.268 103.374C86.6416 103.748 87.085 104.044 87.573 104.246C88.0611 104.448 88.5842 104.553 89.1124 104.553Z" fill="#7933D1"/>
<path d="M94.2241 120.285C95.0197 120.285 95.7975 120.049 96.459 119.607C97.1205 119.165 97.6361 118.537 97.9405 117.802C98.245 117.067 98.3247 116.258 98.1695 115.478C98.0143 114.697 97.6313 113.98 97.0687 113.418C96.5062 112.855 95.7894 112.472 95.0091 112.317C94.2288 112.162 93.42 112.241 92.6849 112.546C91.9499 112.85 91.3216 113.366 90.8796 114.027C90.4376 114.689 90.2016 115.466 90.2016 116.262C90.2016 117.329 90.6254 118.352 91.3798 119.106C92.1341 119.861 93.1573 120.285 94.2241 120.285Z" fill="#7933D1"/>
<path d="M109.141 137.394C111.726 137.394 113.822 135.298 113.822 132.713C113.822 130.128 111.726 128.033 109.141 128.033C106.556 128.033 104.46 130.128 104.46 132.713C104.46 135.298 106.556 137.394 109.141 137.394Z" fill="#7933D1"/>
<path d="M107.657 153.877C110.243 153.877 112.338 151.782 112.338 149.197C112.338 146.611 110.243 144.516 107.657 144.516C105.072 144.516 102.977 146.611 102.977 149.197C102.977 151.782 105.072 153.877 107.657 153.877Z" fill="#7933D1"/>
<path d="M104.314 169.672C106.812 169.087 108.362 166.588 107.776 164.09C107.191 161.593 104.692 160.043 102.195 160.628C99.6976 161.213 98.1475 163.712 98.7328 166.21C99.318 168.707 101.817 170.257 104.314 169.672Z" fill="#7933D1"/>
<path d="M97.1333 184.583C99.6306 183.997 101.181 181.499 100.595 179.001C100.01 176.504 97.5113 174.954 95.014 175.539C92.5167 176.124 90.9667 178.623 91.5519 181.121C92.1371 183.618 94.636 185.168 97.1333 184.583Z" fill="#7933D1"/>
<path d="M86.3461 198.094C87.2646 198.094 88.1625 197.822 88.9263 197.312C89.69 196.801 90.2853 196.076 90.6368 195.227C90.9883 194.379 91.0803 193.445 90.9011 192.544C90.7219 191.643 90.2795 190.816 89.63 190.166C88.9805 189.517 88.153 189.074 87.2521 188.895C86.3512 188.716 85.4174 188.808 84.5688 189.159C83.7202 189.511 82.9948 190.106 82.4845 190.87C81.9742 191.634 81.7018 192.532 81.7018 193.45C81.7018 194.06 81.8219 194.664 82.0553 195.227C82.2887 195.791 82.6308 196.303 83.062 196.734C83.4933 197.165 84.0053 197.507 84.5687 197.741C85.1322 197.974 85.7362 198.094 86.3461 198.094Z" fill="#7933D1"/>
<path d="M78.0798 207.699C79.633 205.658 79.2374 202.744 77.1962 201.191C75.155 199.638 72.2411 200.034 70.6879 202.075C69.1347 204.116 69.5303 207.03 71.5715 208.583C73.6127 210.136 76.5266 209.741 78.0798 207.699Z" fill="#7933D1"/>
<path d="M60.5718 218.685C63.1569 218.685 65.2526 216.589 65.2526 214.004C65.2526 211.419 63.1569 209.324 60.5718 209.324C57.9866 209.324 55.8909 211.419 55.8909 214.004C55.8909 216.589 57.9866 218.685 60.5718 218.685Z" fill="#7933D1"/>
<path d="M45.3537 225.19C47.9388 225.19 50.0345 223.094 50.0345 220.509C50.0345 217.924 47.9388 215.828 45.3537 215.828C42.7685 215.828 40.6729 217.924 40.6729 220.509C40.6729 223.094 42.7685 225.19 45.3537 225.19Z" fill="#7933D1"/>
<path d="M29.2187 228.872C30.1445 228.872 31.0495 228.598 31.8192 228.083C32.589 227.569 33.1889 226.838 33.5432 225.983C33.8975 225.127 33.9902 224.186 33.8096 223.278C33.629 222.37 33.1832 221.536 32.5286 220.882C31.874 220.227 31.0399 219.781 30.1319 219.601C29.2239 219.42 28.2828 219.513 27.4275 219.867C26.5721 220.221 25.8411 220.821 25.3268 221.591C24.8124 222.361 24.538 223.266 24.538 224.191C24.538 225.433 25.0311 226.623 25.9089 227.501C26.7867 228.379 27.9773 228.872 29.2187 228.872Z" fill="#7933D1"/>
<path d="M12.6856 229.615C15.2708 229.615 17.3665 227.519 17.3665 224.934C17.3665 222.349 15.2708 220.253 12.6856 220.253C10.1005 220.253 8.00482 222.349 8.00482 224.934C8.00482 227.519 10.1005 229.615 12.6856 229.615Z" fill="#7933D1"/>
<path d="M-3.01097 227.34C-0.455205 226.952 1.30174 224.565 0.913218 222.009C0.5247 219.453 -1.86215 217.696 -4.41791 218.085C-6.97368 218.473 -8.73054 220.86 -8.34203 223.416C-7.95351 225.972 -5.56673 227.729 -3.01097 227.34Z" fill="#7933D1"/>
<path d="M-3.71449 47.4317C-2.78146 47.4317 -1.86933 47.155 -1.09354 46.6367C-0.317749 46.1183 0.286902 45.3816 0.643962 44.5196C1.00102 43.6576 1.09445 42.709 0.912428 41.7939C0.730405 40.8788 0.281096 40.0383 -0.378657 39.3785C-1.03841 38.7188 -1.87898 38.2695 -2.79408 38.0875C-3.70918 37.9054 -4.65775 37.9989 -5.51976 38.3559C-6.38176 38.713 -7.11847 39.3177 -7.63682 40.0935C-8.15517 40.8693 -8.43187 41.7813 -8.43185 42.7144C-8.43186 43.3339 -8.3098 43.9473 -8.07273 44.5196C-7.83567 45.092 -7.48823 45.612 -7.05018 46.05C-6.61213 46.4881 -6.0921 46.8356 -5.51976 47.0726C-4.94741 47.3097 -4.33398 47.4317 -3.71449 47.4317Z" fill="#7933D1"/>
<path d="M12.6856 45.2102C13.6186 45.2102 14.5307 44.9335 15.3065 44.4152C16.0823 43.8969 16.687 43.1601 17.0441 42.2981C17.4012 41.4361 17.4945 40.4876 17.3125 39.5725C17.1305 38.6574 16.6813 37.8168 16.0215 37.1571C15.3618 36.4973 14.5213 36.048 13.6062 35.8659C12.6911 35.6839 11.7426 35.7773 10.8806 36.1343C10.0186 36.4914 9.28174 37.096 8.76337 37.8718C8.24499 38.6475 7.96828 39.5596 7.96826 40.4926C7.96824 41.7438 8.46526 42.9437 9.34993 43.8284C10.2346 44.7131 11.4345 45.2101 12.6856 45.2102Z" fill="#7933D1"/>
<path d="M29.2187 45.9527C30.1517 45.9527 31.0639 45.676 31.8397 45.1577C32.6154 44.6393 33.2201 43.9026 33.5772 43.0406C33.9342 42.1786 34.0276 41.23 33.8456 40.3149C33.6636 39.3998 33.2144 38.5592 32.5546 37.8995C31.8949 37.2397 31.0543 36.7904 30.1392 36.6084C29.2241 36.4264 28.2755 36.5198 27.4135 36.8769C26.5515 37.2339 25.8147 37.8386 25.2964 38.6144C24.778 39.3902 24.5014 40.3023 24.5014 41.2353C24.5014 42.4864 24.9984 43.6863 25.8831 44.5709C26.7677 45.4556 27.9676 45.9526 29.2187 45.9527Z" fill="#7933D1"/>
<path d="M45.3536 49.6354C46.2867 49.6355 47.1987 49.3588 47.9745 48.8405C48.7503 48.3221 49.355 47.5854 49.7121 46.7234C50.0692 45.8614 50.1626 44.9129 49.9806 43.9978C49.7986 43.0827 49.3493 42.2421 48.6896 41.5823C48.0298 40.9226 47.1893 40.4733 46.2742 40.2912C45.3591 40.1092 44.4106 40.2026 43.5486 40.5596C42.6866 40.9166 41.9498 41.5213 41.4315 42.297C40.9131 43.0728 40.6364 43.9849 40.6364 44.9179C40.6363 46.169 41.1333 47.3689 42.018 48.2536C42.9026 49.1384 44.1025 49.6354 45.3536 49.6354Z" fill="#7933D1"/>
<path d="M60.5717 56.1397C61.5047 56.1397 62.4168 55.8631 63.1925 55.3447C63.9683 54.8264 64.5729 54.0896 64.93 53.2276C65.287 52.3657 65.3805 51.4172 65.1984 50.5021C65.0164 49.587 64.5671 48.7465 63.9074 48.0867C63.2476 47.427 62.4071 46.9777 61.492 46.7957C60.5769 46.6137 59.6284 46.7071 58.7665 47.0642C57.9045 47.4212 57.1678 48.0258 56.6494 48.8016C56.1311 49.5774 55.8544 50.4894 55.8544 51.4224C55.8544 52.6735 56.3514 53.8734 57.2361 54.7581C58.1208 55.6427 59.3206 56.1397 60.5717 56.1397Z" fill="#7933D1"/>
<path d="M78.2412 63.2552C79.741 61.1248 79.2297 58.182 77.0993 56.6823C74.969 55.1826 72.0262 55.6939 70.5265 57.8243C69.0267 59.9547 69.538 62.8975 71.6684 64.3972C73.7988 65.8969 76.7415 65.3856 78.2412 63.2552Z" fill="#7933D1"/>
<path d="M86.3461 76.6941C87.2791 76.694 88.1911 76.4173 88.9669 75.899C89.7426 75.3806 90.3472 74.6438 90.7042 73.7818C91.0612 72.9199 91.1546 71.9714 90.9725 71.0563C90.7905 70.1412 90.3413 69.3007 89.6815 68.641C89.0218 67.9813 88.1812 67.532 87.2661 67.35C86.351 67.168 85.4026 67.2615 84.5406 67.6185C83.6787 67.9756 82.9419 68.5802 82.4236 69.3559C81.9052 70.1317 81.6285 71.0437 81.6285 71.9767C81.6285 72.5962 81.7506 73.2097 81.9877 73.782C82.2247 74.3544 82.5723 74.8744 83.0104 75.3124C83.4484 75.7505 83.9684 76.098 84.5408 76.335C85.1131 76.5721 85.7266 76.6941 86.3461 76.6941Z" fill="#7933D1"/>
<path d="M96.0736 90.0465C96.9994 90.0465 97.9044 89.772 98.6741 89.2577C99.4439 88.7434 100.044 88.0123 100.398 87.157C100.752 86.3017 100.845 85.3605 100.664 84.4526C100.484 83.5446 100.038 82.7105 99.3835 82.0559C98.7289 81.4013 97.8948 80.9555 96.9868 80.7749C96.0788 80.5943 95.1377 80.687 94.2823 81.0412C93.427 81.3955 92.696 81.9955 92.1817 82.7652C91.6673 83.535 91.3928 84.44 91.3928 85.3657C91.3928 86.6072 91.886 87.7977 92.7638 88.6755C93.6416 89.5534 94.8322 90.0465 96.0736 90.0465Z" fill="#7933D1"/>
<path d="M103.255 104.958C105.84 104.958 107.935 102.862 107.935 100.277C107.935 97.6916 105.84 95.5959 103.255 95.5959C100.669 95.5959 98.5737 97.6916 98.5737 100.277C98.5737 102.862 100.669 104.958 103.255 104.958Z" fill="#7933D1"/>
<path d="M107.657 120.911C110.243 120.911 112.338 118.815 112.338 116.23C112.338 113.645 110.243 111.549 107.657 111.549C105.072 111.549 102.977 113.645 102.977 116.23C102.977 118.815 105.072 120.911 107.657 120.911Z" fill="#7933D1"/>
<path d="M122.328 138.052C123.384 138.052 124.417 137.739 125.295 137.153C126.173 136.566 126.857 135.732 127.261 134.757C127.665 133.781 127.771 132.708 127.565 131.672C127.359 130.636 126.85 129.685 126.104 128.938C125.357 128.191 124.406 127.683 123.37 127.477C122.335 127.271 121.261 127.377 120.285 127.781C119.31 128.185 118.476 128.869 117.889 129.747C117.303 130.625 116.989 131.657 116.989 132.713C116.989 134.129 117.552 135.487 118.553 136.489C119.554 137.49 120.912 138.052 122.328 138.052Z" fill="#7933D1"/>
<path d="M121.03 154.556C122.086 154.556 123.118 154.243 123.996 153.657C124.874 153.07 125.558 152.236 125.962 151.261C126.366 150.285 126.472 149.211 126.266 148.176C126.06 147.14 125.551 146.189 124.805 145.442C124.058 144.696 123.107 144.187 122.071 143.981C121.035 143.775 119.962 143.881 118.986 144.285C118.011 144.689 117.177 145.373 116.59 146.251C116.004 147.129 115.69 148.161 115.69 149.217C115.69 149.918 115.829 150.613 116.097 151.261C116.365 151.908 116.758 152.497 117.254 152.993C117.75 153.488 118.339 153.882 118.986 154.15C119.634 154.418 120.328 154.556 121.03 154.556Z" fill="#7933D1"/>
<path d="M117.165 170.654C118.221 170.654 119.253 170.341 120.131 169.754C121.009 169.168 121.693 168.334 122.097 167.358C122.502 166.383 122.607 165.309 122.401 164.273C122.195 163.238 121.687 162.286 120.94 161.54C120.193 160.793 119.242 160.285 118.206 160.079C117.171 159.873 116.097 159.978 115.122 160.382C114.146 160.787 113.312 161.471 112.726 162.349C112.139 163.227 111.826 164.259 111.826 165.315C111.826 166.731 112.388 168.089 113.39 169.09C114.391 170.092 115.749 170.654 117.165 170.654Z" fill="#7933D1"/>
<path d="M110.829 185.949C111.885 185.949 112.918 185.636 113.796 185.049C114.674 184.463 115.358 183.629 115.762 182.653C116.166 181.678 116.272 180.604 116.066 179.568C115.86 178.533 115.352 177.581 114.605 176.835C113.858 176.088 112.907 175.579 111.871 175.373C110.836 175.167 109.762 175.273 108.787 175.677C107.811 176.081 106.977 176.766 106.39 177.644C105.804 178.522 105.491 179.554 105.491 180.61C105.491 182.026 106.053 183.384 107.054 184.385C108.056 185.386 109.413 185.949 110.829 185.949Z" fill="#7933D1"/>
<path d="M102.18 200.064C103.235 200.064 104.268 199.751 105.146 199.165C106.024 198.578 106.708 197.744 107.112 196.769C107.516 195.793 107.622 194.72 107.416 193.684C107.21 192.648 106.701 191.697 105.955 190.95C105.208 190.204 104.257 189.695 103.221 189.489C102.185 189.283 101.112 189.389 100.136 189.793C99.1607 190.197 98.327 190.881 97.7403 191.759C97.1536 192.637 96.8405 193.669 96.8405 194.725C96.8405 196.141 97.4029 197.499 98.4042 198.501C99.4055 199.502 100.764 200.064 102.18 200.064Z" fill="#7933D1"/>
<path d="M92.6449 212.513C95.516 211.84 97.2985 208.968 96.6264 206.097C95.9543 203.226 93.082 201.443 90.2109 202.115C87.3398 202.788 85.5572 205.66 86.2293 208.531C86.9014 211.402 89.7738 213.185 92.6449 212.513Z" fill="#7933D1"/>
<path d="M78.8394 223.405C79.8954 223.405 80.9277 223.092 81.8057 222.505C82.6837 221.918 83.368 221.084 83.7721 220.109C84.1762 219.133 84.282 218.06 84.0759 217.024C83.8699 215.988 83.3614 215.037 82.6148 214.29C81.8681 213.544 80.9167 213.035 79.881 212.829C78.8453 212.623 77.7718 212.729 76.7962 213.133C75.8206 213.537 74.9868 214.221 74.4001 215.099C73.8135 215.977 73.5004 217.01 73.5004 218.066C73.5003 218.767 73.6384 219.461 73.9067 220.109C74.1751 220.757 74.5683 221.345 75.0641 221.841C75.5599 222.337 76.1484 222.73 76.7962 222.998C77.444 223.267 78.1383 223.405 78.8394 223.405Z" fill="#7933D1"/>
<path d="M64.7237 232.055C65.7797 232.055 66.8119 231.742 67.69 231.155C68.568 230.568 69.2524 229.735 69.6565 228.759C70.0607 227.783 70.1665 226.71 69.9605 225.674C69.7545 224.639 69.246 223.687 68.4993 222.94C67.7526 222.194 66.8013 221.685 65.7656 221.479C64.7299 221.273 63.6564 221.379 62.6808 221.783C61.7052 222.187 60.8713 222.871 60.2847 223.749C59.698 224.627 59.3848 225.66 59.3848 226.716C59.3848 228.132 59.9473 229.49 60.9485 230.491C61.9497 231.492 63.3077 232.055 64.7237 232.055Z" fill="#7933D1"/>
<path d="M49.429 238.39C50.4849 238.39 51.5171 238.077 52.3951 237.49C53.2731 236.903 53.9574 236.07 54.3615 235.094C54.7656 234.118 54.8713 233.045 54.6653 232.009C54.4593 230.974 53.9508 230.022 53.2041 229.276C52.4574 228.529 51.506 228.021 50.4704 227.815C49.4347 227.609 48.3612 227.714 47.3856 228.118C46.4101 228.523 45.5762 229.207 44.9896 230.085C44.403 230.963 44.0898 231.995 44.0898 233.051C44.0898 233.752 44.228 234.446 44.4963 235.094C44.7646 235.742 45.1578 236.331 45.6536 236.826C46.1494 237.322 46.738 237.715 47.3858 237.984C48.0335 238.252 48.7278 238.39 49.429 238.39Z" fill="#7933D1"/>
<path d="M36.9647 240.828C39.1253 238.821 39.2501 235.443 37.2435 233.282C35.2369 231.122 31.8587 230.997 29.698 233.004C27.5374 235.01 27.4126 238.389 29.4192 240.549C31.4258 242.71 34.8041 242.835 36.9647 240.828Z" fill="#7933D1"/>
<path d="M16.8273 243.554C17.8833 243.554 18.9155 243.241 19.7935 242.654C20.6716 242.067 21.3559 241.233 21.76 240.258C22.1641 239.282 22.2699 238.209 22.0638 237.173C21.8578 236.137 21.3493 235.186 20.6026 234.439C19.856 233.693 18.9046 233.184 17.8689 232.978C16.8332 232.772 15.7597 232.878 14.7841 233.282C13.8085 233.686 12.9747 234.37 12.388 235.248C11.8014 236.126 11.4882 237.159 11.4882 238.215C11.4882 238.916 11.6263 239.61 11.8946 240.258C12.1629 240.906 12.5562 241.494 13.0519 241.99C13.5477 242.486 14.1363 242.879 14.7841 243.147C15.4319 243.416 16.1262 243.554 16.8273 243.554Z" fill="#7933D1"/>
<path d="M0.323112 242.255C1.3791 242.255 2.41135 241.942 3.28939 241.355C4.16744 240.769 4.85181 239.935 5.25595 238.959C5.66009 237.984 5.76589 236.91 5.55991 235.874C5.35392 234.839 4.84539 233.887 4.09871 233.141C3.35203 232.394 2.40068 231.885 1.36498 231.679C0.329291 231.473 -0.744209 231.579 -1.71982 231.983C-2.69542 232.387 -3.52931 233.071 -4.11598 233.95C-4.70266 234.828 -5.01575 235.86 -5.01575 236.916C-5.01576 238.332 -4.4533 239.69 -3.45207 240.691C-2.45083 241.692 -1.09287 242.255 0.323112 242.255Z" fill="#7933D1"/>
<path d="M0.323134 33.9233C1.39356 33.9233 2.43999 33.6058 3.33002 33.0111C4.22005 32.4164 4.91368 31.5712 5.32331 30.5822C5.73295 29.5933 5.84016 28.5051 5.63133 27.4552C5.4225 26.4053 4.90702 25.441 4.15012 24.6841C3.39321 23.9272 2.42887 23.4117 1.37901 23.2029C0.329144 22.994 -0.759058 23.1012 -1.74801 23.5109C-2.73695 23.9205 -3.58224 24.6142 -4.17694 25.5042C-4.77164 26.3942 -5.08902 27.4406 -5.08902 28.5111C-5.089 29.9465 -4.51882 31.3231 -3.50385 32.338C-2.48887 33.353 -1.11226 33.9232 0.323134 33.9233Z" fill="#7933D1"/>
<path d="M16.8274 32.6244C17.8978 32.6244 18.9442 32.307 19.8343 31.7123C20.7243 31.1176 21.4181 30.2723 21.8277 29.2834C22.2374 28.2944 22.3445 27.2062 22.1357 26.1563C21.9269 25.1064 21.4114 24.1421 20.6545 23.3851C19.8976 22.6282 18.9333 22.1127 17.8834 21.9039C16.8335 21.695 15.7453 21.8022 14.7563 22.2118C13.7673 22.6214 12.922 23.3151 12.3273 24.2052C11.7326 25.0952 11.4152 26.1416 11.4152 27.212C11.4151 27.9228 11.5552 28.6266 11.8271 29.2833C12.0991 29.9399 12.4978 30.5366 13.0003 31.0391C13.5029 31.5417 14.0995 31.9404 14.7562 32.2124C15.4128 32.4844 16.1166 32.6244 16.8274 32.6244Z" fill="#7933D1"/>
<path d="M33.3313 33.9232C36.3204 33.9232 38.7435 31.5001 38.7435 28.5111C38.7435 25.522 36.3204 23.0989 33.3313 23.0989C30.3422 23.0989 27.9192 25.522 27.9192 28.5111C27.9192 31.5001 30.3422 33.9232 33.3313 33.9232Z" fill="#7933D1"/>
<path d="M54.3855 34.4566C55.5348 31.7192 54.2473 28.5684 51.5098 27.4192C48.7724 26.2699 45.6216 27.5574 44.4724 30.2948C43.3231 33.0322 44.6106 36.1831 47.348 37.3323C50.0855 38.4815 53.2363 37.194 54.3855 34.4566Z" fill="#7933D1"/>
<path d="M69.6803 40.7921C70.8295 38.0546 69.542 34.9038 66.8046 33.7546C64.0672 32.6053 60.9164 33.8928 59.7671 36.6303C58.6179 39.3677 59.9054 42.5184 62.6428 43.6677C65.3802 44.8169 68.531 43.5295 69.6803 40.7921Z" fill="#7933D1"/>
<path d="M78.8394 52.7367C79.9026 52.7367 80.942 52.4214 81.826 51.8308C82.71 51.2401 83.3991 50.4005 83.8059 49.4182C84.2128 48.436 84.3192 47.3551 84.1118 46.3123C83.9044 45.2696 83.3924 44.3117 82.6406 43.5599C81.8888 42.8081 80.9309 42.2961 79.8881 42.0887C78.8454 41.8813 77.7646 41.9877 76.7823 42.3946C75.8 42.8015 74.9604 43.4905 74.3697 44.3745C73.779 45.2585 73.4638 46.2979 73.4638 47.3611C73.4638 48.067 73.6028 48.766 73.873 49.4183C74.1431 50.0705 74.5391 50.6631 75.0383 51.1623C75.5374 51.6614 76.1301 52.0574 76.7823 52.3276C77.4345 52.5977 78.1335 52.7367 78.8394 52.7367Z" fill="#7933D1"/>
<path d="M96.6049 59.561C97.4047 56.7018 95.7352 53.7357 92.8761 52.9359C90.017 52.1362 87.0508 53.8055 86.251 56.6647C85.4512 59.5238 87.1206 62.49 89.9798 63.2898C92.8389 64.0896 95.8051 62.4201 96.6049 59.561Z" fill="#7933D1"/>
<path d="M102.18 76.0769C103.243 76.0769 104.282 75.7616 105.166 75.1709C106.05 74.5802 106.739 73.7407 107.146 72.7584C107.553 71.7762 107.659 70.6953 107.452 69.6526C107.244 68.6099 106.732 67.652 105.98 66.9003C105.229 66.1485 104.271 65.6365 103.228 65.4291C102.185 65.2217 101.105 65.3281 100.122 65.735C99.1401 66.1418 98.3005 66.8308 97.7098 67.7148C97.1191 68.5988 96.8039 69.6381 96.8038 70.7013C96.8038 71.4072 96.9429 72.1062 97.2131 72.7584C97.4832 73.4107 97.8792 74.0033 98.3784 74.5024C98.8775 75.0016 99.4701 75.3976 100.122 75.6677C100.775 75.9379 101.474 76.0769 102.18 76.0769Z" fill="#7933D1"/>
<path d="M110.829 90.1558C111.885 90.1558 112.918 89.8427 113.796 89.2561C114.674 88.6694 115.358 87.8356 115.762 86.86C116.166 85.8844 116.272 84.8109 116.066 83.7752C115.86 82.7396 115.352 81.7882 114.605 81.0415C113.858 80.2949 112.907 79.7864 111.871 79.5804C110.836 79.3744 109.762 79.4801 108.786 79.8842C107.811 80.2883 106.977 80.9726 106.39 81.8506C105.804 82.7287 105.491 83.7609 105.491 84.8169C105.491 86.2328 106.053 87.5908 107.054 88.592C108.056 89.5933 109.414 90.1558 110.829 90.1558Z" fill="#7933D1"/>
<path d="M117.165 105.451C118.221 105.451 119.253 105.138 120.131 104.551C121.009 103.964 121.693 103.13 122.097 102.155C122.502 101.179 122.607 100.106 122.401 99.0701C122.195 98.0344 121.687 97.0831 120.94 96.3365C120.193 95.5898 119.242 95.0813 118.206 94.8753C117.171 94.6693 116.097 94.775 115.122 95.1791C114.146 95.5832 113.312 96.2675 112.726 97.1455C112.139 98.0235 111.826 99.0557 111.826 100.112C111.826 101.528 112.388 102.886 113.39 103.887C114.391 104.888 115.749 105.451 117.165 105.451Z" fill="#7933D1"/>
<path d="M125.972 118.23C127.088 115.5 125.779 112.383 123.05 111.267C120.32 110.152 117.203 111.46 116.088 114.189C114.972 116.919 116.28 120.036 119.01 121.151C121.739 122.267 124.856 120.959 125.972 118.23Z" fill="#7933D1"/>
<path d="M135.516 138.711C136.702 138.711 137.862 138.359 138.848 137.7C139.834 137.041 140.603 136.104 141.057 135.008C141.511 133.913 141.63 132.707 141.398 131.543C141.167 130.38 140.596 129.311 139.757 128.473C138.918 127.634 137.849 127.063 136.686 126.831C135.523 126.6 134.317 126.719 133.221 127.173C132.125 127.626 131.189 128.395 130.53 129.381C129.871 130.368 129.519 131.527 129.519 132.713C129.519 133.501 129.674 134.281 129.975 135.008C130.277 135.736 130.718 136.397 131.275 136.954C131.832 137.511 132.493 137.953 133.221 138.254C133.949 138.556 134.729 138.711 135.516 138.711Z" fill="#7933D1"/>
<path d="M134.361 155.229C135.547 155.229 136.707 154.877 137.693 154.218C138.679 153.559 139.448 152.623 139.902 151.527C140.356 150.431 140.474 149.225 140.243 148.062C140.012 146.898 139.44 145.83 138.602 144.991C137.763 144.152 136.694 143.581 135.531 143.35C134.368 143.118 133.162 143.237 132.066 143.691C130.97 144.145 130.033 144.913 129.374 145.9C128.715 146.886 128.364 148.045 128.364 149.232C128.364 150.019 128.519 150.799 128.82 151.527C129.122 152.254 129.563 152.915 130.12 153.472C130.677 154.029 131.338 154.471 132.066 154.772C132.794 155.074 133.574 155.229 134.361 155.229Z" fill="#7933D1"/>
<path d="M130.918 171.426C132.104 171.426 133.264 171.074 134.25 170.415C135.237 169.756 136.005 168.819 136.459 167.724C136.913 166.628 137.032 165.422 136.8 164.259C136.569 163.095 135.998 162.027 135.159 161.188C134.32 160.349 133.252 159.778 132.089 159.546C130.925 159.315 129.719 159.434 128.623 159.888C127.528 160.342 126.591 161.11 125.932 162.096C125.273 163.083 124.921 164.242 124.921 165.428C124.921 167.019 125.553 168.544 126.678 169.669C127.802 170.794 129.328 171.426 130.918 171.426Z" fill="#7933D1"/>
<path d="M125.255 186.986C126.441 186.986 127.601 186.634 128.587 185.975C129.573 185.316 130.342 184.379 130.796 183.284C131.25 182.188 131.369 180.982 131.137 179.818C130.906 178.655 130.335 177.586 129.496 176.748C128.657 175.909 127.588 175.338 126.425 175.106C125.262 174.875 124.056 174.994 122.96 175.448C121.864 175.902 120.927 176.67 120.268 177.657C119.609 178.643 119.258 179.802 119.258 180.989C119.258 182.579 119.89 184.104 121.014 185.229C122.139 186.354 123.664 186.986 125.255 186.986Z" fill="#7933D1"/>
<path d="M117.481 201.606C118.667 201.606 119.827 201.254 120.813 200.596C121.799 199.937 122.568 199 123.022 197.904C123.476 196.808 123.595 195.602 123.363 194.439C123.132 193.276 122.561 192.207 121.722 191.368C120.883 190.529 119.815 189.958 118.651 189.727C117.488 189.495 116.282 189.614 115.186 190.068C114.09 190.522 113.154 191.291 112.495 192.277C111.836 193.263 111.484 194.423 111.484 195.609C111.484 196.396 111.639 197.176 111.94 197.904C112.242 198.632 112.683 199.293 113.24 199.85C113.797 200.407 114.458 200.848 115.186 201.15C115.914 201.451 116.694 201.606 117.481 201.606Z" fill="#7933D1"/>
<path d="M107.748 215.002C108.934 215.002 110.094 214.651 111.08 213.992C112.066 213.333 112.835 212.396 113.289 211.3C113.743 210.204 113.862 208.998 113.63 207.835C113.399 206.672 112.828 205.603 111.989 204.764C111.15 203.926 110.082 203.354 108.918 203.123C107.755 202.892 106.549 203.01 105.453 203.464C104.357 203.918 103.421 204.687 102.762 205.673C102.103 206.66 101.751 207.819 101.751 209.005C101.751 210.596 102.383 212.121 103.508 213.246C104.632 214.371 106.158 215.002 107.748 215.002Z" fill="#7933D1"/>
<path d="M96.2456 226.914C97.4318 226.914 98.5913 226.562 99.5776 225.903C100.564 225.244 101.332 224.307 101.786 223.211C102.24 222.115 102.359 220.91 102.128 219.746C101.896 218.583 101.325 217.514 100.486 216.676C99.6475 215.837 98.5789 215.266 97.4155 215.034C96.2521 214.803 95.0463 214.922 93.9504 215.376C92.8546 215.83 91.9179 216.598 91.2589 217.585C90.5999 218.571 90.2482 219.73 90.2483 220.916C90.2483 221.704 90.4034 222.484 90.7048 223.212C91.0062 223.939 91.448 224.6 92.0049 225.157C92.5618 225.714 93.2229 226.156 93.9506 226.457C94.6782 226.759 95.4581 226.914 96.2456 226.914Z" fill="#7933D1"/>
<path d="M83.1973 237.108C84.3834 237.108 85.5429 236.756 86.5292 236.097C87.5154 235.438 88.2841 234.502 88.738 233.406C89.1919 232.31 89.3107 231.104 89.0792 229.941C88.8478 228.777 88.2766 227.709 87.4378 226.87C86.5991 226.031 85.5305 225.46 84.3671 225.229C83.2037 224.997 81.9979 225.116 80.9021 225.57C79.8062 226.024 78.8695 226.793 78.2105 227.779C77.5516 228.765 77.1999 229.925 77.1999 231.111C77.1999 231.899 77.355 232.678 77.6564 233.406C77.9578 234.134 78.3996 234.795 78.9565 235.352C79.5134 235.909 80.1746 236.35 80.9022 236.652C81.6298 236.953 82.4097 237.108 83.1973 237.108Z" fill="#7933D1"/>
<path d="M68.8571 245.388C70.0432 245.388 71.2027 245.036 72.189 244.377C73.1752 243.718 73.9439 242.781 74.3979 241.685C74.8518 240.59 74.9706 239.384 74.7392 238.22C74.5078 237.057 73.9366 235.988 73.0979 235.15C72.2592 234.311 71.1906 233.74 70.0272 233.508C68.8639 233.277 67.658 233.396 66.5621 233.849C65.4662 234.303 64.5296 235.072 63.8706 236.058C63.2116 237.044 62.8598 238.204 62.8598 239.39C62.8598 240.981 63.4917 242.506 64.6163 243.631C65.741 244.756 67.2665 245.388 68.8571 245.388Z" fill="#7933D1"/>
<path d="M53.5041 251.59C54.6903 251.59 55.8498 251.239 56.8361 250.58C57.8224 249.921 58.5911 248.984 59.045 247.888C59.4989 246.792 59.6177 245.587 59.3863 244.423C59.1549 243.26 58.5837 242.191 57.745 241.352C56.9062 240.514 55.8376 239.942 54.6742 239.711C53.5109 239.48 52.305 239.598 51.2091 240.052C50.1132 240.506 49.1766 241.275 48.5176 242.261C47.8586 243.248 47.5069 244.407 47.5069 245.593C47.507 247.184 48.1389 248.709 49.2635 249.834C50.3882 250.959 51.9136 251.59 53.5041 251.59Z" fill="#7933D1"/>
<path d="M37.4375 255.596C38.6236 255.596 39.7831 255.245 40.7693 254.586C41.7555 253.927 42.5242 252.99 42.9781 251.894C43.432 250.798 43.5508 249.592 43.3194 248.429C43.088 247.266 42.5168 246.197 41.6781 245.358C40.8394 244.52 39.7707 243.948 38.6074 243.717C37.444 243.486 36.2382 243.604 35.1423 244.058C34.0464 244.512 33.1098 245.281 32.4508 246.267C31.7918 247.253 31.4401 248.413 31.4401 249.599C31.4401 251.19 32.0719 252.715 33.1966 253.84C34.3213 254.965 35.8468 255.596 37.4375 255.596Z" fill="#7933D1"/>
<path d="M20.9694 257.327C22.1556 257.327 23.3151 256.976 24.3013 256.317C25.2876 255.658 26.0563 254.721 26.5102 253.625C26.9642 252.529 27.083 251.323 26.8516 250.16C26.6202 248.997 26.0491 247.928 25.2103 247.089C24.3716 246.251 23.303 245.679 22.1396 245.448C20.9762 245.216 19.7704 245.335 18.6745 245.789C17.5787 246.243 16.642 247.012 15.983 247.998C15.3239 248.984 14.9722 250.144 14.9722 251.33C14.9722 252.92 15.604 254.446 16.7287 255.571C17.8534 256.695 19.3788 257.327 20.9694 257.327Z" fill="#7933D1"/>
<path d="M4.42082 256.749C5.60699 256.749 6.76654 256.398 7.75281 255.739C8.73907 255.08 9.50778 254.143 9.96171 253.047C10.4156 251.951 10.5344 250.745 10.303 249.582C10.0716 248.419 9.50041 247.35 8.66167 246.511C7.82292 245.673 6.75431 245.101 5.59094 244.87C4.42757 244.639 3.22168 244.757 2.12581 245.211C1.02994 245.665 0.0932791 246.434 -0.565706 247.42C-1.22469 248.406 -1.57637 249.566 -1.57635 250.752C-1.57634 252.343 -0.944505 253.868 0.180187 254.993C1.30488 256.118 2.83027 256.749 4.42082 256.749Z" fill="#7933D1"/>
<path d="M4.42082 20.7452C5.62146 20.7452 6.79516 20.3892 7.79347 19.7222C8.79179 19.0552 9.56991 18.1071 10.0294 16.9979C10.4889 15.8887 10.6092 14.6681 10.3749 13.4905C10.1407 12.3129 9.56257 11.2313 8.71361 10.3823C7.86464 9.53328 6.78299 8.9551 5.60543 8.72085C4.42786 8.4866 3.20726 8.6068 2.09801 9.06626C0.988762 9.52572 0.0406392 10.3038 -0.626405 11.3021C-1.29345 12.3004 -1.64944 13.4741 -1.64944 14.6747C-1.64944 16.2847 -1.00995 17.8287 0.128449 18.9671C1.26685 20.1055 2.81086 20.7451 4.42082 20.7452Z" fill="#7933D1"/>
<path d="M20.9695 20.1673C22.1701 20.1673 23.3436 19.8112 24.3419 19.1442C25.3402 18.4772 26.1182 17.5291 26.5777 16.4199C27.0371 15.3107 27.1573 14.0901 26.9231 12.9126C26.6889 11.7351 26.1107 10.6534 25.2618 9.80448C24.4128 8.95553 23.3312 8.37737 22.1536 8.14314C20.9761 7.90891 19.7556 8.02911 18.6464 8.48855C17.5372 8.94799 16.5891 9.72603 15.922 10.7243C15.255 11.7225 14.899 12.8962 14.899 14.0968C14.899 14.894 15.0559 15.6834 15.361 16.4199C15.6661 17.1564 16.1133 17.8256 16.6769 18.3893C17.2406 18.953 17.9099 19.4001 18.6464 19.7052C19.3829 20.0103 20.1723 20.1673 20.9695 20.1673Z" fill="#7933D1"/>
<path d="M37.4375 21.898C38.6381 21.898 39.8117 21.5419 40.81 20.8749C41.8083 20.2079 42.5863 19.2598 43.0457 18.1505C43.5051 17.0413 43.6254 15.8208 43.3911 14.6432C43.1569 13.4657 42.5787 12.3841 41.7297 11.5351C40.8807 10.6862 39.7991 10.108 38.6215 9.87383C37.444 9.63962 36.2235 9.75985 35.1143 10.2193C34.005 10.6788 33.057 11.4569 32.39 12.4552C31.723 13.4534 31.367 14.6271 31.367 15.8277C31.367 16.6249 31.524 17.4143 31.829 18.1507C32.1341 18.8872 32.5813 19.5564 33.145 20.1201C33.7087 20.6838 34.3779 21.1309 35.1144 21.436C35.8509 21.741 36.6403 21.898 37.4375 21.898Z" fill="#7933D1"/>
<path d="M54.558 25.8119C57.8597 25.2298 60.0644 22.0814 59.4824 18.7797C58.9003 15.4779 55.7519 13.2732 52.4502 13.8553C49.1485 14.4373 46.9437 17.5858 47.5258 20.8875C48.1079 24.1892 51.2563 26.3939 54.558 25.8119Z" fill="#7933D1"/>
<path d="M68.857 32.0704C70.0504 32.0704 71.217 31.7165 72.2092 31.0535C73.2015 30.3906 73.9749 29.4482 74.4316 28.3457C74.8883 27.2431 75.0078 26.0299 74.775 24.8595C74.5422 23.689 73.9676 22.6139 73.1238 21.77C72.2799 20.9262 71.2048 20.3515 70.0344 20.1186C68.8639 19.8858 67.6507 20.0053 66.5482 20.4619C65.4456 20.9186 64.5032 21.692 63.8402 22.6842C63.1772 23.6765 62.8233 24.8431 62.8232 26.0364C62.8232 27.6367 63.459 29.1714 64.5905 30.303C65.722 31.4346 67.2568 32.0703 68.857 32.0704Z" fill="#7933D1"/>
<path d="M83.1973 40.3497C84.3907 40.3497 85.5573 39.9959 86.5496 39.3329C87.5419 38.6698 88.3152 37.7275 88.7719 36.6249C89.2286 35.5223 89.3481 34.3091 89.1153 33.1386C88.8825 31.9682 88.3078 30.893 87.4639 30.0492C86.62 29.2053 85.5449 28.6306 84.3744 28.3978C83.2039 28.165 81.9908 28.2845 80.8882 28.7412C79.7856 29.1979 78.8433 29.9713 78.1802 30.9635C77.5172 31.9558 77.1634 33.1224 77.1634 34.3158C77.1633 35.1082 77.3194 35.8928 77.6226 36.6249C77.9258 37.357 78.3703 38.0222 78.9306 38.5825C79.4909 39.1428 80.1561 39.5872 80.8881 39.8905C81.6202 40.1937 82.4049 40.3498 83.1973 40.3497Z" fill="#7933D1"/>
<path d="M96.2456 50.5442C97.439 50.5441 98.6056 50.1902 99.5978 49.5272C100.59 48.8642 101.363 47.9218 101.82 46.8193C102.277 45.7167 102.396 44.5035 102.163 43.333C101.931 42.1626 101.356 41.0875 100.512 40.2436C99.6682 39.3998 98.593 38.8252 97.4225 38.5924C96.2521 38.3596 95.0389 38.4791 93.9364 38.9358C92.8339 39.3925 91.8915 40.1659 91.2285 41.1582C90.5655 42.1504 90.2117 43.317 90.2117 44.5104C90.2117 45.3028 90.3678 46.0874 90.671 46.8195C90.9742 47.5515 91.4187 48.2167 91.979 48.777C92.5393 49.3373 93.2045 49.7817 93.9365 50.0849C94.6686 50.3881 95.4533 50.5442 96.2456 50.5442Z" fill="#7933D1"/>
<path d="M107.748 62.4555C108.942 62.4555 110.108 62.1016 111.1 61.4386C112.093 60.7756 112.866 59.8332 113.323 58.7307C113.779 57.6281 113.899 56.4149 113.666 55.2445C113.433 54.0741 112.859 52.9989 112.015 52.1551C111.171 51.3113 110.096 50.7366 108.925 50.5038C107.755 50.2709 106.542 50.3904 105.439 50.8471C104.337 51.3038 103.394 52.0771 102.731 53.0694C102.068 54.0616 101.714 55.2282 101.714 56.4216C101.714 58.0219 102.35 59.5566 103.482 60.6882C104.613 61.8198 106.148 62.4555 107.748 62.4555Z" fill="#7933D1"/>
<path d="M117.481 75.8517C118.675 75.8517 119.841 75.4978 120.833 74.8347C121.826 74.1717 122.599 73.2293 123.056 72.1268C123.512 71.0242 123.632 69.811 123.399 68.6406C123.166 67.4702 122.591 66.395 121.748 65.5512C120.904 64.7074 119.829 64.1327 118.658 63.8999C117.488 63.6671 116.275 63.7866 115.172 64.2433C114.069 64.7 113.127 65.4734 112.464 66.4657C111.801 67.458 111.447 68.6246 111.447 69.8179C111.447 71.4182 112.083 72.9529 113.215 74.0845C114.346 75.216 115.881 75.8517 117.481 75.8517Z" fill="#7933D1"/>
<path d="M125.255 90.472C126.448 90.472 127.615 90.1181 128.607 89.4551C129.599 88.7921 130.373 87.8498 130.83 86.7472C131.286 85.6447 131.406 84.4315 131.173 83.261C130.94 82.0905 130.365 81.0154 129.522 80.1716C128.678 79.3277 127.603 78.753 126.432 78.5202C125.262 78.2874 124.048 78.4069 122.946 78.8636C121.843 79.3203 120.901 80.0937 120.238 81.086C119.575 82.0783 119.221 83.2449 119.221 84.4382C119.221 86.0385 119.857 87.5732 120.988 88.7047C122.12 89.8363 123.655 90.472 125.255 90.472Z" fill="#7933D1"/>
<path d="M130.918 106.032C132.112 106.032 133.278 105.678 134.271 105.015C135.263 104.352 136.036 103.41 136.493 102.307C136.95 101.205 137.069 99.9917 136.836 98.8212C136.603 97.6507 136.029 96.5756 135.185 95.7318C134.341 94.8879 133.266 94.3132 132.095 94.0804C130.925 93.8476 129.712 93.9671 128.609 94.4238C127.507 94.8805 126.564 95.6539 125.901 96.6462C125.238 97.6384 124.885 98.805 124.885 99.9984C124.885 101.599 125.52 103.133 126.652 104.265C127.783 105.396 129.318 106.032 130.918 106.032Z" fill="#7933D1"/>
<path d="M134.361 122.229C135.554 122.229 136.721 121.875 137.713 121.212C138.706 120.549 139.479 119.607 139.936 118.504C140.392 117.401 140.512 116.188 140.279 115.018C140.046 113.847 139.471 112.772 138.627 111.928C137.784 111.085 136.709 110.51 135.538 110.277C134.368 110.044 133.154 110.164 132.052 110.62C130.949 111.077 130.007 111.851 129.344 112.843C128.681 113.835 128.327 115.002 128.327 116.195C128.327 116.987 128.483 117.772 128.786 118.504C129.09 119.236 129.534 119.901 130.094 120.462C130.655 121.022 131.32 121.466 132.052 121.77C132.784 122.073 133.569 122.229 134.361 122.229Z" fill="#7933D1"/>
<path d="M148.704 133.811C148.921 133.81 149.133 133.746 149.313 133.626C149.494 133.505 149.634 133.334 149.717 133.133C149.8 132.933 149.822 132.712 149.78 132.499C149.737 132.287 149.633 132.091 149.48 131.938C149.326 131.784 149.131 131.68 148.918 131.637C148.705 131.595 148.484 131.617 148.284 131.7C148.084 131.783 147.912 131.923 147.792 132.104C147.671 132.284 147.607 132.496 147.607 132.713C147.607 132.857 147.635 133 147.69 133.133C147.745 133.266 147.826 133.387 147.928 133.489C148.03 133.591 148.151 133.672 148.284 133.727C148.417 133.782 148.56 133.811 148.704 133.811Z" fill="#7933D1"/>
<path d="M147.664 150.558C147.924 150.558 148.179 150.481 148.395 150.337C148.612 150.192 148.781 149.986 148.88 149.746C148.98 149.505 149.006 149.241 148.955 148.985C148.904 148.73 148.779 148.495 148.595 148.311C148.411 148.127 148.176 148.002 147.921 147.951C147.666 147.9 147.401 147.926 147.16 148.026C146.92 148.125 146.714 148.294 146.569 148.51C146.425 148.727 146.347 148.981 146.347 149.242C146.347 149.415 146.381 149.586 146.448 149.746C146.514 149.905 146.611 150.051 146.733 150.173C146.855 150.295 147 150.392 147.16 150.458C147.32 150.524 147.491 150.558 147.664 150.558Z" fill="#7933D1"/>
<path d="M144.561 166.826C145.288 166.826 145.877 166.237 145.877 165.51C145.877 164.783 145.288 164.193 144.561 164.193C143.834 164.193 143.244 164.783 143.244 165.51C143.244 166.237 143.834 166.826 144.561 166.826Z" fill="#7933D1"/>
<path d="M139.443 182.65C139.718 182.65 139.986 182.569 140.215 182.416C140.444 182.263 140.622 182.046 140.727 181.792C140.832 181.538 140.86 181.259 140.806 180.989C140.753 180.72 140.62 180.472 140.426 180.278C140.231 180.083 139.984 179.951 139.714 179.897C139.445 179.844 139.165 179.871 138.911 179.976C138.657 180.082 138.44 180.26 138.288 180.488C138.135 180.717 138.053 180.985 138.053 181.26C138.053 181.629 138.2 181.982 138.46 182.243C138.721 182.504 139.074 182.65 139.443 182.65Z" fill="#7933D1"/>
<path d="M132.392 197.562C132.652 197.562 132.906 197.485 133.123 197.34C133.339 197.196 133.508 196.99 133.608 196.749C133.708 196.509 133.734 196.244 133.683 195.989C133.632 195.733 133.507 195.499 133.323 195.315C133.139 195.131 132.904 195.005 132.649 194.954C132.393 194.903 132.129 194.93 131.888 195.029C131.647 195.129 131.442 195.297 131.297 195.514C131.152 195.73 131.075 195.985 131.075 196.245C131.075 196.418 131.109 196.589 131.175 196.749C131.241 196.909 131.338 197.054 131.461 197.176C131.583 197.299 131.728 197.396 131.888 197.462C132.047 197.528 132.219 197.562 132.392 197.562Z" fill="#7933D1"/>
<path d="M123.518 211.691C123.807 211.691 124.09 211.605 124.33 211.445C124.571 211.284 124.758 211.056 124.869 210.788C124.98 210.521 125.009 210.227 124.952 209.943C124.896 209.659 124.756 209.399 124.552 209.194C124.347 208.99 124.087 208.85 123.803 208.794C123.519 208.737 123.225 208.766 122.958 208.877C122.691 208.988 122.462 209.175 122.301 209.416C122.141 209.656 122.055 209.939 122.055 210.228C122.055 210.421 122.093 210.611 122.166 210.788C122.24 210.966 122.347 211.127 122.483 211.263C122.619 211.399 122.78 211.506 122.958 211.58C123.135 211.653 123.326 211.691 123.518 211.691Z" fill="#7933D1"/>
<path d="M112.961 224.379C113.236 224.379 113.505 224.297 113.733 224.145C113.962 223.992 114.14 223.775 114.245 223.521C114.35 223.267 114.378 222.988 114.324 222.718C114.271 222.449 114.138 222.201 113.944 222.007C113.75 221.812 113.502 221.68 113.232 221.626C112.963 221.573 112.683 221.6 112.429 221.705C112.175 221.81 111.958 221.988 111.806 222.217C111.653 222.446 111.572 222.714 111.572 222.989C111.572 223.358 111.718 223.711 111.978 223.972C112.239 224.232 112.593 224.379 112.961 224.379Z" fill="#7933D1"/>
<path d="M100.889 235.752C101.171 235.752 101.446 235.669 101.681 235.512C101.916 235.355 102.098 235.132 102.206 234.872C102.314 234.611 102.342 234.324 102.287 234.048C102.232 233.771 102.097 233.517 101.897 233.317C101.698 233.118 101.444 232.982 101.167 232.927C100.89 232.872 100.603 232.9 100.343 233.008C100.082 233.116 99.8594 233.299 99.7027 233.534C99.546 233.768 99.4623 234.044 99.4623 234.326C99.4624 234.704 99.6127 235.067 99.8801 235.334C100.148 235.602 100.51 235.752 100.889 235.752Z" fill="#7933D1"/>
<path d="M87.4903 245.413C87.7579 245.413 88.0195 245.334 88.242 245.185C88.4645 245.037 88.6379 244.825 88.7403 244.578C88.8427 244.331 88.8694 244.059 88.8172 243.796C88.765 243.534 88.6361 243.293 88.4469 243.104C88.2577 242.914 88.0165 242.786 87.7541 242.733C87.4916 242.681 87.2196 242.708 86.9723 242.81C86.7251 242.913 86.5138 243.086 86.3651 243.309C86.2164 243.531 86.1372 243.793 86.1372 244.06C86.1372 244.238 86.1722 244.414 86.2402 244.578C86.3082 244.742 86.4078 244.892 86.5335 245.017C86.6591 245.143 86.8083 245.243 86.9725 245.311C87.1366 245.378 87.3126 245.413 87.4903 245.413Z" fill="#7933D1"/>
<path d="M72.9776 253.392C73.2452 253.392 73.5068 253.312 73.7293 253.164C73.9518 253.015 74.1252 252.804 74.2276 252.556C74.33 252.309 74.3567 252.037 74.3045 251.775C74.2523 251.512 74.1234 251.271 73.9342 251.082C73.745 250.893 73.5038 250.764 73.2414 250.712C72.9789 250.66 72.7069 250.686 72.4596 250.789C72.2124 250.891 72.0011 251.065 71.8524 251.287C71.7038 251.51 71.6245 251.771 71.6245 252.039C71.6245 252.217 71.6595 252.393 71.7275 252.557C71.7955 252.721 71.8951 252.87 72.0208 252.996C72.1464 253.121 72.2956 253.221 72.4598 253.289C72.6239 253.357 72.7999 253.392 72.9776 253.392Z" fill="#7933D1"/>
<path d="M57.5795 259.452C57.8398 259.452 58.0943 259.375 58.3108 259.23C58.5273 259.085 58.696 258.88 58.7956 258.639C58.8953 258.399 58.9213 258.134 58.8705 257.879C58.8197 257.623 58.6943 257.389 58.5102 257.205C58.3261 257.02 58.0915 256.895 57.8362 256.844C57.5808 256.793 57.3161 256.82 57.0756 256.919C56.835 257.019 56.6294 257.188 56.4847 257.404C56.3401 257.62 56.2628 257.875 56.2628 258.135C56.2628 258.308 56.2968 258.479 56.363 258.639C56.4292 258.799 56.5261 258.944 56.6484 259.066C56.7707 259.189 56.9158 259.286 57.0756 259.352C57.2353 259.418 57.4066 259.452 57.5795 259.452Z" fill="#7933D1"/>
<path d="M41.5384 263.571C41.7988 263.571 42.0533 263.493 42.2698 263.349C42.4864 263.204 42.6551 262.998 42.7548 262.758C42.8544 262.517 42.8805 262.253 42.8297 261.997C42.7789 261.742 42.6535 261.507 42.4694 261.323C42.2853 261.139 42.0507 261.014 41.7953 260.963C41.5399 260.912 41.2752 260.938 41.0346 261.038C40.7941 261.137 40.5885 261.306 40.4439 261.523C40.2992 261.739 40.222 261.994 40.222 262.254C40.222 262.603 40.3607 262.938 40.6076 263.185C40.8545 263.432 41.1892 263.57 41.5384 263.571Z" fill="#7933D1"/>
<path d="M25.1079 265.536C25.7744 265.536 26.3147 264.996 26.3147 264.33C26.3147 263.663 25.7744 263.123 25.1079 263.123C24.4414 263.123 23.9011 263.663 23.9011 264.33C23.9011 264.996 24.4414 265.536 25.1079 265.536Z" fill="#7933D1"/>
<path d="M8.54664 265.536C9.21313 265.536 9.75344 264.996 9.75344 264.33C9.75344 263.663 9.21313 263.123 8.54664 263.123C7.88015 263.123 7.33984 263.663 7.33984 264.33C7.33984 264.996 7.88015 265.536 8.54664 265.536Z" fill="#7933D1"/>
<path d="M8.54664 2.19414C8.76363 2.19416 8.97574 2.12983 9.15617 2.00929C9.33659 1.88875 9.47718 1.71741 9.56023 1.51694C9.64328 1.31648 9.66507 1.09589 9.62274 0.883067C9.58042 0.670247 9.47593 0.474757 9.3225 0.321323C9.16906 0.167889 8.97353 0.0634032 8.76071 0.0210758C8.54789 -0.0212517 8.32729 0.000481184 8.12683 0.0835282C7.92636 0.166575 7.75503 0.307208 7.63449 0.487635C7.51395 0.668063 7.44966 0.880181 7.44968 1.09717C7.4497 1.3881 7.56528 1.6671 7.771 1.87281C7.97671 2.07853 8.25571 2.19411 8.54664 2.19414Z" fill="#7933D1"/>
<path d="M25.1079 2.19414C25.3249 2.19416 25.537 2.12983 25.7174 2.00929C25.8978 1.88875 26.0385 1.71741 26.1215 1.51694C26.2046 1.31648 26.2263 1.09589 26.184 0.883067C26.1417 0.670247 26.0372 0.474757 25.8837 0.321323C25.7303 0.167889 25.5348 0.0634032 25.322 0.0210758C25.1091 -0.0212517 24.8885 0.000481184 24.6881 0.0835282C24.4876 0.166575 24.3163 0.307208 24.1957 0.487635C24.0752 0.668063 24.0109 0.880181 24.0109 1.09717C24.011 1.38809 24.1265 1.66709 24.3322 1.87281C24.538 2.07852 24.817 2.1941 25.1079 2.19414Z" fill="#7933D1"/>
<path d="M41.5384 4.5624C41.8132 4.56242 42.0819 4.48094 42.3104 4.32827C42.539 4.17559 42.7171 3.95858 42.8223 3.70467C42.9275 3.45076 42.955 3.17136 42.9014 2.9018C42.8478 2.63224 42.7155 2.38463 42.5212 2.19028C42.3268 1.99593 42.0793 1.86356 41.8097 1.80992C41.5402 1.75629 41.2607 1.78378 41.0068 1.88894C40.7529 1.9941 40.5359 2.17219 40.3832 2.4007C40.2305 2.62921 40.1489 2.89787 40.1489 3.1727C40.1489 3.54124 40.2953 3.8947 40.5559 4.15531C40.8164 4.41593 41.1698 4.56236 41.5384 4.5624Z" fill="#7933D1"/>
<path d="M57.5794 8.64437C57.847 8.64435 58.1086 8.56498 58.3311 8.41629C58.5536 8.2676 58.727 8.05627 58.8294 7.80902C58.9317 7.56178 58.9585 7.28973 58.9063 7.02727C58.8541 6.76481 58.7252 6.52373 58.536 6.33452C58.3467 6.14531 58.1056 6.01646 57.8431 5.96427C57.5807 5.91209 57.3086 5.9389 57.0614 6.04133C56.8142 6.14375 56.6029 6.31719 56.4543 6.53971C56.3056 6.76222 56.2262 7.02383 56.2263 7.29143C56.2262 7.46912 56.2612 7.64508 56.3292 7.80924C56.3972 7.9734 56.4969 8.12256 56.6226 8.24819C56.7482 8.37383 56.8974 8.47349 57.0616 8.54146C57.2258 8.60944 57.4017 8.64441 57.5794 8.64437Z" fill="#7933D1"/>
<path d="M72.9776 14.6678C73.2307 14.6677 73.4782 14.5926 73.6886 14.452C73.8991 14.3113 74.0631 14.1114 74.1599 13.8775C74.2567 13.6437 74.2821 13.3863 74.2327 13.1381C74.1833 12.8898 74.0613 12.6618 73.8823 12.4828C73.7033 12.3039 73.4753 12.182 73.227 12.1326C72.9788 12.0832 72.7214 12.1086 72.4876 12.2055C72.2537 12.3024 72.0539 12.4664 71.9133 12.6769C71.7726 12.8873 71.6976 13.1348 71.6976 13.3879C71.6976 13.556 71.7307 13.7224 71.795 13.8777C71.8594 14.033 71.9536 14.1741 72.0725 14.2929C72.1914 14.4118 72.3325 14.5061 72.4878 14.5704C72.6431 14.6347 72.8095 14.6678 72.9776 14.6678Z" fill="#7933D1"/>
<path d="M87.4903 22.7561C87.7652 22.7561 88.0338 22.6746 88.2624 22.5219C88.4909 22.3692 88.6691 22.1521 88.7742 21.8982C88.8794 21.6443 88.9069 21.3648 88.8533 21.0953C88.7997 20.8257 88.6673 20.5781 88.4729 20.3837C88.2786 20.1894 88.031 20.057 87.7614 20.0034C87.4918 19.9498 87.2124 19.9773 86.9585 20.0825C86.7045 20.1877 86.4875 20.3658 86.3348 20.5943C86.1821 20.8228 86.1006 21.0915 86.1006 21.3664C86.1007 21.7349 86.247 22.0884 86.5077 22.349C86.7683 22.6096 87.1217 22.756 87.4903 22.7561Z" fill="#7933D1"/>
<path d="M100.889 32.4903C101.163 32.4903 101.432 32.4088 101.66 32.256C101.889 32.1033 102.067 31.8863 102.172 31.6324C102.277 31.3785 102.305 31.0991 102.251 30.8295C102.198 30.56 102.065 30.3124 101.871 30.1181C101.677 29.9237 101.429 29.7914 101.159 29.7378C100.89 29.6842 100.611 29.7117 100.357 29.8169C100.103 29.9221 99.8857 30.1003 99.733 30.3288C99.5803 30.5573 99.4988 30.826 99.4988 31.1008C99.4988 31.2833 99.5348 31.464 99.6047 31.6326C99.6745 31.8012 99.7769 31.9543 99.9059 32.0834C100.035 32.2124 100.188 32.3147 100.357 32.3846C100.525 32.4544 100.706 32.4903 100.889 32.4903Z" fill="#7933D1"/>
<path d="M112.961 43.7541C113.221 43.7541 113.476 43.6769 113.693 43.5323C113.909 43.3876 114.078 43.182 114.177 42.9415C114.277 42.7009 114.303 42.4362 114.252 42.1808C114.202 41.9254 114.076 41.6908 113.892 41.5067C113.708 41.3226 113.473 41.1972 113.218 41.1464C112.963 41.0956 112.698 41.1217 112.457 41.2213C112.217 41.321 112.011 41.4897 111.866 41.7063C111.722 41.9228 111.645 42.1773 111.645 42.4377C111.645 42.7868 111.783 43.1216 112.03 43.3685C112.277 43.6154 112.612 43.7541 112.961 43.7541Z" fill="#7933D1"/>
<path d="M123.518 56.5878C123.792 56.5878 124.061 56.5064 124.29 56.3537C124.518 56.201 124.696 55.984 124.801 55.7301C124.907 55.4761 124.934 55.1967 124.881 54.9272C124.827 54.6576 124.695 54.41 124.5 54.2156C124.306 54.0213 124.058 53.889 123.789 53.8353C123.519 53.7817 123.24 53.8093 122.986 53.9145C122.732 54.0196 122.515 54.1978 122.362 54.4263C122.21 54.6548 122.128 54.9235 122.128 55.1984C122.128 55.5669 122.275 55.9203 122.535 56.1808C122.796 56.4414 123.149 56.5878 123.518 56.5878Z" fill="#7933D1"/>
<path d="M132.392 70.4614C132.645 70.4614 132.892 70.3863 133.103 70.2457C133.313 70.105 133.477 69.9051 133.574 69.6713C133.671 69.4374 133.696 69.18 133.647 68.9317C133.598 68.6834 133.476 68.4553 133.297 68.2763C133.118 68.0973 132.89 67.9754 132.641 67.926C132.393 67.8766 132.136 67.902 131.902 67.9989C131.668 68.0958 131.468 68.2598 131.327 68.4703C131.187 68.6808 131.112 68.9283 131.112 69.1815C131.112 69.5209 131.247 69.8464 131.487 70.0865C131.727 70.3265 132.052 70.4613 132.392 70.4614Z" fill="#7933D1"/>
<path d="M139.443 85.556C139.718 85.556 139.986 85.4745 140.215 85.3218C140.443 85.1691 140.622 84.9521 140.727 84.6982C140.832 84.4443 140.86 84.1649 140.806 83.8953C140.752 83.6257 140.62 83.3781 140.426 83.1838C140.231 82.9894 139.984 82.8571 139.714 82.8035C139.444 82.7499 139.165 82.7774 138.911 82.8826C138.657 82.9878 138.44 83.1659 138.288 83.3944C138.135 83.6229 138.053 83.8916 138.053 84.1665C138.053 84.535 138.2 84.8884 138.46 85.149C138.721 85.4095 139.074 85.5559 139.443 85.556Z" fill="#7933D1"/>
<path d="M144.561 101.233C144.821 101.233 145.076 101.156 145.292 101.012C145.509 100.867 145.677 100.661 145.777 100.421C145.877 100.18 145.903 99.9155 145.852 99.6601C145.801 99.4048 145.676 99.1702 145.492 98.9861C145.307 98.8019 145.073 98.6766 144.818 98.6258C144.562 98.575 144.297 98.601 144.057 98.7007C143.816 98.8003 143.611 98.9691 143.466 99.1856C143.321 99.4021 143.244 99.6567 143.244 99.917C143.244 100.09 143.278 100.261 143.344 100.421C143.411 100.581 143.508 100.726 143.63 100.848C143.752 100.97 143.897 101.067 144.057 101.133C144.217 101.199 144.388 101.233 144.561 101.233Z" fill="#7933D1"/>
<path d="M147.664 117.501C147.924 117.501 148.179 117.424 148.395 117.28C148.612 117.135 148.781 116.929 148.88 116.689C148.98 116.448 149.006 116.184 148.955 115.928C148.904 115.673 148.779 115.438 148.595 115.254C148.411 115.07 148.176 114.945 147.921 114.894C147.666 114.843 147.401 114.869 147.16 114.969C146.92 115.068 146.714 115.237 146.569 115.453C146.425 115.67 146.347 115.924 146.347 116.185C146.347 116.358 146.381 116.529 146.448 116.689C146.514 116.848 146.611 116.994 146.733 117.116C146.855 117.238 147 117.335 147.16 117.401C147.32 117.467 147.491 117.501 147.664 117.501Z" fill="#7933D1"/>
</g>
</svg>
