<svg width="299" height="422" viewBox="0 0 299 422" fill="none" xmlns="http://www.w3.org/2000/svg">
<g opacity="0.2">
<path d="M85.3807 1.97066C85.4447 1.97066 85.4966 1.91875 85.4966 1.85472C85.4966 1.79068 85.4447 1.73877 85.3807 1.73877C85.3168 1.73877 85.2649 1.79068 85.2649 1.85472C85.2649 1.91875 85.3168 1.97066 85.3807 1.97066Z" fill="#7933D1"/>
<path d="M127.145 2.55044C127.282 2.5504 127.416 2.50959 127.531 2.43316C127.645 2.35672 127.734 2.24809 127.787 2.12101C127.839 1.99393 127.853 1.8541 127.826 1.7192C127.799 1.5843 127.733 1.4604 127.636 1.36314C127.539 1.26588 127.415 1.19964 127.28 1.1728C127.145 1.14595 127.006 1.15971 126.879 1.21233C126.752 1.26495 126.643 1.35407 126.567 1.46842C126.491 1.58277 126.45 1.71722 126.45 1.85476C126.45 2.03925 126.523 2.21618 126.653 2.34663C126.784 2.47709 126.961 2.55039 127.145 2.55044Z" fill="#7933D1"/>
<path d="M168.909 3.36169C169.207 3.36163 169.498 3.27319 169.745 3.10756C169.993 2.94193 170.186 2.70655 170.299 2.43118C170.413 2.15582 170.443 1.85283 170.385 1.56053C170.327 1.26823 170.183 0.999749 169.973 0.789031C169.762 0.578314 169.494 0.434829 169.202 0.376711C168.91 0.318593 168.607 0.34845 168.332 0.462519C168.057 0.576587 167.822 0.769743 167.657 1.01755C167.491 1.26536 167.403 1.55671 167.403 1.85474C167.403 2.05267 167.442 2.24865 167.518 2.43151C167.593 2.61437 167.704 2.78052 167.844 2.92046C167.984 3.0604 168.15 3.1714 168.333 3.2471C168.515 3.32281 168.711 3.36175 168.909 3.36169Z" fill="#7933D1"/>
<path d="M210.673 3.70959C211.696 3.70959 212.526 2.87918 212.526 1.8548C212.526 0.830423 211.696 0 210.673 0C209.649 0 208.82 0.830423 208.82 1.8548C208.82 2.87918 209.649 3.70959 210.673 3.70959Z" fill="#7933D1"/>
<path d="M252.437 3.3617C253.268 3.3617 253.942 2.68701 253.942 1.85474C253.942 1.02247 253.268 0.347778 252.437 0.347778C251.605 0.347778 250.931 1.02247 250.931 1.85474C250.931 2.68701 251.605 3.3617 252.437 3.3617Z" fill="#7933D1"/>
<path d="M294.201 2.66636C294.361 2.66633 294.518 2.61871 294.651 2.52954C294.784 2.44036 294.888 2.31362 294.95 2.16536C295.011 2.01709 295.027 1.85395 294.996 1.69656C294.964 1.53917 294.887 1.3946 294.774 1.28112C294.66 1.16765 294.516 1.09037 294.359 1.05906C294.202 1.02774 294.039 1.0438 293.89 1.10519C293.742 1.16659 293.616 1.27056 293.527 1.40398C293.438 1.5374 293.39 1.69426 293.39 1.85474C293.39 1.96133 293.411 2.06687 293.452 2.16534C293.492 2.26382 293.552 2.3533 293.627 2.42866C293.703 2.50403 293.792 2.56381 293.89 2.6046C293.989 2.64538 294.094 2.66637 294.201 2.66636Z" fill="#7933D1"/>
<path d="M43.617 43.8926C43.6629 43.8926 43.7076 43.879 43.7457 43.8535C43.7838 43.828 43.8135 43.7918 43.831 43.7495C43.8486 43.7071 43.8532 43.6605 43.8443 43.6155C43.8353 43.5705 43.8132 43.5292 43.7808 43.4968C43.7484 43.4643 43.7071 43.4422 43.6622 43.4333C43.6172 43.4243 43.5707 43.4289 43.5283 43.4465C43.486 43.464 43.4499 43.4938 43.4244 43.5319C43.399 43.57 43.3854 43.6149 43.3854 43.6607C43.3853 43.6912 43.3913 43.7213 43.4029 43.7495C43.4146 43.7776 43.4316 43.8032 43.4531 43.8248C43.4746 43.8463 43.5002 43.8634 43.5283 43.875C43.5565 43.8867 43.5866 43.8926 43.617 43.8926Z" fill="#7933D1"/>
<path d="M85.3808 45.5155C86.4041 45.5155 87.2336 44.6851 87.2336 43.6607C87.2336 42.6363 86.4041 41.8059 85.3808 41.8059C84.3574 41.8059 83.5278 42.6363 83.5278 43.6607C83.5278 44.6851 84.3574 45.5155 85.3808 45.5155Z" fill="#7933D1"/>
<path d="M127.145 47.2544C129.128 47.2544 130.735 45.6455 130.735 43.6608C130.735 41.6761 129.128 40.0671 127.145 40.0671C125.162 40.0671 123.555 41.6761 123.555 43.6608C123.555 45.6455 125.162 47.2544 127.145 47.2544Z" fill="#7933D1"/>
<path d="M168.909 48.5294C169.871 48.5294 170.811 48.2438 171.611 47.7088C172.411 47.1737 173.035 46.4133 173.403 45.5236C173.771 44.6338 173.867 43.6548 173.68 42.7103C173.492 41.7658 173.029 40.8982 172.348 40.2172C171.668 39.5363 170.801 39.0726 169.858 38.8848C168.914 38.6969 167.936 38.7934 167.047 39.162C166.158 39.5306 165.399 40.1547 164.864 40.9555C164.33 41.7562 164.045 42.6976 164.045 43.6607C164.045 44.3001 164.171 44.9332 164.415 45.5239C164.659 46.1146 165.018 46.6514 165.469 47.1035C165.921 47.5556 166.457 47.9142 167.047 48.1589C167.638 48.4035 168.27 48.5294 168.909 48.5294Z" fill="#7933D1"/>
<path d="M210.673 48.9932C211.726 48.9932 212.756 48.6805 213.632 48.0946C214.508 47.5086 215.191 46.6758 215.594 45.7014C215.997 44.727 216.103 43.6548 215.897 42.6204C215.692 41.586 215.185 40.6359 214.44 39.8901C213.695 39.1443 212.745 38.6365 211.712 38.4307C210.679 38.225 209.607 38.3306 208.634 38.7342C207.661 39.1378 206.829 39.8212 206.243 40.6982C205.658 41.5751 205.345 42.6061 205.345 43.6607C205.345 45.075 205.907 46.4313 206.906 47.4314C207.905 48.4314 209.26 48.9932 210.673 48.9932Z" fill="#7933D1"/>
<path d="M252.437 48.5294C253.399 48.5294 254.339 48.2438 255.139 47.7088C255.939 47.1737 256.562 46.4133 256.931 45.5236C257.299 44.6338 257.395 43.6548 257.207 42.7103C257.02 41.7658 256.556 40.8982 255.876 40.2172C255.196 39.5363 254.329 39.0726 253.385 38.8848C252.442 38.6969 251.464 38.7934 250.575 39.162C249.686 39.5306 248.926 40.1547 248.392 40.9555C247.858 41.7562 247.572 42.6976 247.573 43.6607C247.573 44.952 248.085 46.1903 248.997 47.1034C249.909 48.0164 251.147 48.5294 252.437 48.5294Z" fill="#7933D1"/>
<path d="M294.201 47.3704C296.247 47.3704 297.907 45.7095 297.907 43.6608C297.907 41.612 296.247 39.9512 294.201 39.9512C292.154 39.9512 290.495 41.612 290.495 43.6608C290.495 45.7095 292.154 47.3704 294.201 47.3704Z" fill="#7933D1"/>
<path d="M1.85301 85.5826C1.91698 85.5826 1.96884 85.5307 1.96884 85.4667C1.96884 85.4026 1.91698 85.3507 1.85301 85.3507C1.78904 85.3507 1.73718 85.4026 1.73718 85.4667C1.73718 85.5307 1.78904 85.5826 1.85301 85.5826Z" fill="#7933D1"/>
<path d="M43.617 87.3214C44.6404 87.3214 45.47 86.491 45.47 85.4666C45.47 84.4422 44.6404 83.6118 43.617 83.6118C42.5936 83.6118 41.764 84.4422 41.764 85.4666C41.764 86.491 42.5936 87.3214 43.617 87.3214Z" fill="#7933D1"/>
<path d="M85.3808 89.8716C86.2511 89.8716 87.1019 89.6132 87.8256 89.1291C88.5493 88.6451 89.1132 87.957 89.4463 87.1521C89.7793 86.3472 89.8665 85.4615 89.6967 84.607C89.5268 83.7525 89.1076 82.9675 88.4922 82.3515C87.8767 81.7355 87.0926 81.316 86.2389 81.146C85.3853 80.9761 84.5004 81.0633 83.6963 81.3968C82.8922 81.7302 82.205 82.2949 81.7214 83.0193C81.2379 83.7437 80.9798 84.5954 80.9799 85.4667C80.9799 86.0452 81.0937 86.618 81.3148 87.1524C81.536 87.6869 81.8602 88.1725 82.2688 88.5816C82.6775 88.9906 83.1627 89.315 83.6967 89.5364C84.2306 89.7577 84.8028 89.8716 85.3808 89.8716Z" fill="#7933D1"/>
<path d="M127.145 92.0742C128.45 92.0742 129.727 91.6866 130.812 90.9605C131.898 90.2345 132.744 89.2024 133.243 87.995C133.743 86.7876 133.874 85.459 133.619 84.1772C133.364 82.8955 132.735 81.7181 131.812 80.794C130.889 79.8699 129.713 79.2406 128.432 78.9857C127.152 78.7308 125.825 78.8617 124.618 79.3618C123.412 79.862 122.381 80.7089 121.656 81.7956C120.931 82.8822 120.543 84.1598 120.543 85.4667C120.544 87.2192 121.239 88.8998 122.477 90.139C123.715 91.3781 125.394 92.0742 127.145 92.0742Z" fill="#7933D1"/>
<path d="M168.909 93.6971C170.535 93.6971 172.125 93.2144 173.477 92.3099C174.829 91.4055 175.883 90.12 176.505 88.6161C177.128 87.1121 177.29 85.4572 176.973 83.8606C176.656 82.264 175.873 80.7975 174.723 79.6464C173.573 78.4954 172.108 77.7115 170.513 77.394C168.918 77.0764 167.264 77.2394 165.762 77.8624C164.26 78.4854 162.975 79.5404 162.072 80.8939C161.168 82.2475 160.686 83.8388 160.686 85.4667C160.686 86.5476 160.899 87.6179 161.312 88.6165C161.725 89.6151 162.331 90.5224 163.095 91.2867C163.858 92.051 164.765 92.6572 165.762 93.0708C166.76 93.4844 167.829 93.6972 168.909 93.6971Z" fill="#7933D1"/>
<path d="M210.672 94.2769C212.413 94.2769 214.115 93.7602 215.562 92.7922C217.01 91.8241 218.138 90.4481 218.804 88.8382C219.47 87.2283 219.645 85.4568 219.305 83.7477C218.966 82.0387 218.127 80.4688 216.896 79.2366C215.665 78.0045 214.097 77.1654 212.39 76.8254C210.682 76.4855 208.913 76.66 207.304 77.3268C205.696 77.9937 204.321 79.1229 203.354 80.5718C202.387 82.0207 201.871 83.7241 201.871 85.4667C201.871 87.8033 202.799 90.0441 204.449 91.6964C206.1 93.3486 208.338 94.2768 210.672 94.2769Z" fill="#7933D1"/>
<path d="M252.437 93.6971C254.063 93.6971 255.653 93.2144 257.005 92.3099C258.357 91.4055 259.411 90.12 260.033 88.6161C260.655 87.1121 260.818 85.4572 260.501 83.8606C260.184 82.264 259.401 80.7975 258.251 79.6464C257.101 78.4954 255.635 77.7115 254.04 77.394C252.446 77.0764 250.792 77.2394 249.29 77.8624C247.787 78.4854 246.503 79.5404 245.6 80.8939C244.696 82.2475 244.214 83.8388 244.214 85.4667C244.214 86.5475 244.427 87.6178 244.84 88.6164C245.253 89.615 245.859 90.5223 246.623 91.2866C247.386 92.0509 248.293 92.6571 249.29 93.0707C250.288 93.4843 251.357 93.6972 252.437 93.6971Z" fill="#7933D1"/>
<path d="M294.201 92.3061C295.552 92.3061 296.873 91.9049 297.997 91.1533C299.12 90.4017 299.996 89.3335 300.513 88.0837C301.03 86.8339 301.166 85.4587 300.902 84.132C300.638 82.8052 299.987 81.5865 299.032 80.63C298.076 79.6735 296.859 79.0221 295.533 78.7582C294.208 78.4943 292.834 78.6298 291.586 79.1475C290.337 79.6652 289.27 80.5419 288.519 81.6667C287.768 82.7915 287.368 84.1139 287.368 85.4666C287.368 86.3648 287.544 87.2542 287.888 88.0841C288.231 88.9139 288.735 89.6679 289.369 90.303C290.004 90.9381 290.757 91.4419 291.586 91.7856C292.415 92.1293 293.303 92.3061 294.201 92.3061Z" fill="#7933D1"/>
<path d="M1.85294 127.968C1.99034 127.968 2.12459 127.927 2.23883 127.851C2.35306 127.774 2.44212 127.666 2.49468 127.538C2.54725 127.411 2.56106 127.272 2.53424 127.137C2.50743 127.002 2.44119 126.878 2.34403 126.781C2.24687 126.683 2.1231 126.617 1.98834 126.59C1.85357 126.563 1.71383 126.577 1.58688 126.63C1.45992 126.682 1.35141 126.772 1.27505 126.886C1.19869 127 1.15799 127.135 1.15796 127.272C1.158 127.457 1.2312 127.634 1.36153 127.764C1.49185 127.895 1.66863 127.968 1.85294 127.968Z" fill="#7933D1"/>
<path d="M43.617 130.866C44.3271 130.866 45.0211 130.655 45.6115 130.26C46.2018 129.865 46.6618 129.304 46.9335 128.647C47.2051 127.991 47.2762 127.268 47.1377 126.571C46.9991 125.874 46.6572 125.234 46.1551 124.731C45.653 124.228 45.0133 123.886 44.3169 123.748C43.6206 123.609 42.8987 123.68 42.2427 123.952C41.5868 124.224 41.0261 124.685 40.6316 125.276C40.2372 125.867 40.0266 126.562 40.0266 127.272C40.0266 127.744 40.1195 128.212 40.2999 128.648C40.4804 129.084 40.7448 129.48 41.0782 129.813C41.4116 130.147 41.8074 130.412 42.2431 130.592C42.6787 130.773 43.1455 130.866 43.617 130.866Z" fill="#7933D1"/>
<path d="M85.3808 133.88C86.6864 133.88 87.9627 133.493 89.0482 132.767C90.1338 132.041 90.9799 131.009 91.4795 129.801C91.9792 128.594 92.11 127.265 91.8553 125.983C91.6006 124.702 90.9719 123.524 90.0487 122.6C89.1256 121.676 87.9494 121.047 86.6689 120.792C85.3885 120.537 84.0612 120.667 82.855 121.168C81.6488 121.668 80.6178 122.515 79.8924 123.601C79.1671 124.688 78.7798 125.965 78.7798 127.272C78.7797 129.025 79.4752 130.705 80.7131 131.945C81.951 133.184 83.6301 133.88 85.3808 133.88Z" fill="#7933D1"/>
<path d="M127.145 136.547C128.977 136.547 130.769 136.003 132.292 134.984C133.816 133.965 135.003 132.516 135.705 130.822C136.406 129.127 136.589 127.262 136.232 125.463C135.874 123.664 134.992 122.012 133.696 120.715C132.401 119.418 130.75 118.534 128.953 118.177C127.155 117.819 125.293 118.002 123.6 118.704C121.907 119.406 120.46 120.595 119.442 122.12C118.424 123.645 117.88 125.438 117.88 127.272C117.88 128.49 118.12 129.696 118.585 130.821C119.051 131.947 119.733 132.969 120.594 133.83C121.454 134.691 122.475 135.375 123.599 135.841C124.723 136.307 125.928 136.547 127.145 136.547Z" fill="#7933D1"/>
<path d="M168.909 138.633C171.154 138.633 173.348 137.967 175.214 136.719C177.081 135.47 178.535 133.696 179.394 131.62C180.253 129.544 180.478 127.26 180.04 125.056C179.602 122.852 178.521 120.828 176.934 119.239C175.347 117.65 173.325 116.568 171.123 116.13C168.921 115.692 166.639 115.917 164.566 116.776C162.492 117.636 160.719 119.092 159.472 120.961C158.225 122.829 157.559 125.025 157.559 127.272C157.559 128.764 157.853 130.242 158.423 131.62C158.994 132.998 159.83 134.251 160.883 135.306C161.937 136.361 163.189 137.198 164.566 137.769C165.943 138.339 167.419 138.633 168.909 138.633Z" fill="#7933D1"/>
<path d="M210.673 139.561C213.1 139.561 215.474 138.84 217.493 137.49C219.512 136.14 221.085 134.22 222.014 131.975C222.943 129.73 223.187 127.259 222.713 124.875C222.239 122.491 221.07 120.302 219.353 118.583C217.637 116.865 215.449 115.694 213.068 115.22C210.687 114.746 208.218 114.989 205.975 115.919C203.732 116.849 201.815 118.424 200.466 120.445C199.117 122.466 198.397 124.842 198.397 127.272C198.397 130.531 199.69 133.657 201.992 135.961C204.294 138.266 207.417 139.56 210.673 139.561Z" fill="#7933D1"/>
<path d="M252.437 138.865C258.833 138.865 264.018 133.675 264.018 127.272C264.018 120.87 258.833 115.68 252.437 115.68C246.041 115.68 240.856 120.87 240.856 127.272C240.856 133.675 246.041 138.865 252.437 138.865Z" fill="#7933D1"/>
<path d="M294.201 136.778C296.079 136.778 297.915 136.22 299.477 135.176C301.038 134.131 302.255 132.647 302.974 130.91C303.693 129.173 303.881 127.261 303.514 125.418C303.148 123.574 302.243 121.88 300.915 120.55C299.587 119.221 297.895 118.316 296.053 117.949C294.211 117.582 292.302 117.771 290.566 118.49C288.831 119.209 287.348 120.428 286.305 121.991C285.261 123.554 284.704 125.392 284.704 127.272C284.704 128.521 284.95 129.757 285.427 130.91C285.904 132.063 286.604 133.111 287.486 133.994C288.367 134.877 289.414 135.577 290.567 136.055C291.719 136.532 292.954 136.778 294.201 136.778Z" fill="#7933D1"/>
<path d="M1.85301 170.585C2.68444 170.585 3.35848 169.911 3.35848 169.078C3.35848 168.246 2.68444 167.571 1.85301 167.571C1.02157 167.571 0.347534 168.246 0.347534 169.078C0.347534 169.911 1.02157 170.585 1.85301 170.585Z" fill="#7933D1"/>
<path d="M43.617 173.947C44.5791 173.947 45.5195 173.661 46.3194 173.126C47.1193 172.591 47.7428 171.831 48.1109 170.941C48.4791 170.051 48.5754 169.072 48.3877 168.128C48.2 167.183 47.7367 166.316 47.0564 165.635C46.3761 164.954 45.5093 164.49 44.5658 164.302C43.6222 164.114 42.6441 164.211 41.7553 164.579C40.8665 164.948 40.1069 165.572 39.5725 166.373C39.038 167.174 38.7527 168.115 38.7528 169.078C38.7528 169.718 38.8787 170.351 39.1231 170.941C39.3676 171.532 39.7259 172.069 40.1776 172.521C40.6293 172.973 41.1655 173.332 41.7557 173.576C42.3458 173.821 42.9783 173.947 43.617 173.947Z" fill="#7933D1"/>
<path d="M85.3807 177.309C89.9219 177.309 93.6033 173.624 93.6033 169.078C93.6033 164.532 89.9219 160.847 85.3807 160.847C80.8395 160.847 77.1581 164.532 77.1581 169.078C77.1581 173.624 80.8395 177.309 85.3807 177.309Z" fill="#7933D1"/>
<path d="M127.145 180.439C133.413 180.439 138.494 175.353 138.494 169.078C138.494 162.804 133.413 157.718 127.145 157.718C120.877 157.718 115.796 162.804 115.796 169.078C115.796 175.353 120.877 180.439 127.145 180.439Z" fill="#7933D1"/>
<path d="M168.909 183.221C171.703 183.221 174.435 182.392 176.759 180.838C179.082 179.284 180.893 177.075 181.962 174.491C183.032 171.906 183.312 169.063 182.766 166.319C182.221 163.576 180.876 161.056 178.9 159.078C176.924 157.1 174.406 155.753 171.665 155.207C168.925 154.661 166.084 154.941 163.502 156.012C160.92 157.082 158.714 158.895 157.161 161.221C155.609 163.547 154.78 166.281 154.78 169.078C154.78 170.936 155.145 172.775 155.856 174.491C156.566 176.206 157.606 177.766 158.918 179.079C160.23 180.392 161.788 181.434 163.502 182.145C165.216 182.855 167.054 183.221 168.909 183.221Z" fill="#7933D1"/>
<path d="M210.672 184.728C219.307 184.728 226.307 177.722 226.307 169.078C226.307 160.435 219.307 153.428 210.672 153.428C202.038 153.428 195.038 160.435 195.038 169.078C195.038 177.722 202.038 184.728 210.672 184.728Z" fill="#7933D1"/>
<path d="M252.437 183.453C260.368 183.453 266.797 177.017 266.797 169.078C266.797 161.139 260.368 154.703 252.437 154.703C244.506 154.703 238.076 161.139 238.076 169.078C238.076 177.017 244.506 183.453 252.437 183.453Z" fill="#7933D1"/>
<path d="M294.201 180.671C300.597 180.671 305.782 175.481 305.782 169.078C305.782 162.676 300.597 157.486 294.201 157.486C287.805 157.486 282.62 162.676 282.62 169.078C282.62 175.481 287.805 180.671 294.201 180.671Z" fill="#7933D1"/>
<path d="M1.85296 212.739C2.87631 212.739 3.70592 211.909 3.70592 210.884C3.70592 209.86 2.87631 209.029 1.85296 209.029C0.829611 209.029 0 209.86 0 210.884C0 211.909 0.829611 212.739 1.85296 212.739Z" fill="#7933D1"/>
<path d="M43.617 216.217C44.6706 216.217 45.7006 215.904 46.5767 215.318C47.4527 214.732 48.1354 213.899 48.5386 212.925C48.9418 211.95 49.0473 210.878 48.8417 209.843C48.6361 208.809 48.1288 207.859 47.3837 207.113C46.6386 206.367 45.6894 205.859 44.656 205.654C43.6226 205.448 42.5513 205.554 41.5779 205.957C40.6045 206.361 39.7725 207.044 39.1871 207.921C38.6018 208.798 38.2894 209.829 38.2894 210.884C38.2895 212.298 38.8508 213.655 39.8499 214.655C40.849 215.655 42.2041 216.217 43.617 216.217Z" fill="#7933D1"/>
<path d="M85.3807 219.694C87.1215 219.694 88.8232 219.178 90.2706 218.21C91.7181 217.242 92.8462 215.866 93.5124 214.256C94.1786 212.646 94.3529 210.874 94.0133 209.165C93.6737 207.456 92.8354 205.886 91.6045 204.654C90.3736 203.422 88.8052 202.583 87.0979 202.243C85.3905 201.903 83.6209 202.077 82.0126 202.744C80.4043 203.411 79.0296 204.54 78.0625 205.989C77.0954 207.438 76.5793 209.142 76.5793 210.884C76.5794 213.221 77.5067 215.462 79.1573 217.114C80.8078 218.766 83.0465 219.694 85.3807 219.694Z" fill="#7933D1"/>
<path d="M127.145 223.172C129.573 223.172 131.946 222.451 133.965 221.101C135.984 219.751 137.557 217.832 138.486 215.586C139.416 213.341 139.659 210.87 139.185 208.486C138.711 206.103 137.542 203.913 135.825 202.195C134.108 200.476 131.921 199.306 129.54 198.832C127.158 198.358 124.69 198.601 122.447 199.531C120.204 200.461 118.286 202.036 116.938 204.057C115.589 206.078 114.869 208.454 114.869 210.884C114.869 214.143 116.162 217.269 118.465 219.573C120.767 221.877 123.889 223.172 127.145 223.172Z" fill="#7933D1"/>
<path d="M168.909 226.534C177.544 226.534 184.543 219.527 184.543 210.884C184.543 202.241 177.544 195.234 168.909 195.234C160.274 195.234 153.275 202.241 153.275 210.884C153.275 219.527 160.274 226.534 168.909 226.534Z" fill="#7933D1"/>
<path d="M210.673 228.969C220.65 228.969 228.739 220.872 228.739 210.884C228.739 200.896 220.65 192.8 210.673 192.8C200.695 192.8 192.606 200.896 192.606 210.884C192.606 220.872 200.695 228.969 210.673 228.969Z" fill="#7933D1"/>
<path d="M252.437 226.766C261.199 226.766 268.303 219.656 268.303 210.884C268.303 202.113 261.199 195.002 252.437 195.002C243.674 195.002 236.571 202.113 236.571 210.884C236.571 219.656 243.674 226.766 252.437 226.766Z" fill="#7933D1"/>
<path d="M294.201 223.404C296.674 223.404 299.093 222.67 301.149 221.294C303.206 219.918 304.809 217.963 305.756 215.675C306.703 213.387 306.95 210.87 306.468 208.441C305.985 206.013 304.794 203.782 303.045 202.031C301.295 200.28 299.067 199.088 296.64 198.605C294.214 198.122 291.699 198.369 289.414 199.317C287.129 200.265 285.175 201.869 283.801 203.928C282.427 205.987 281.693 208.408 281.693 210.884C281.693 214.205 283.011 217.389 285.357 219.737C287.702 222.085 290.884 223.404 294.201 223.404Z" fill="#7933D1"/>
<path d="M1.85301 254.197C2.15079 254.197 2.44187 254.109 2.68948 253.943C2.9371 253.778 3.13013 253.542 3.24412 253.267C3.35811 252.992 3.38792 252.689 3.32986 252.396C3.2718 252.104 3.12842 251.835 2.91788 251.624C2.70734 251.414 2.43911 251.27 2.14705 251.212C1.855 251.154 1.55225 251.183 1.27712 251.298C1.00199 251.412 0.76686 251.605 0.601392 251.853C0.435924 252.1 0.347568 252.392 0.347534 252.69C0.347498 253.09 0.50612 253.473 0.788445 253.756C1.07077 254.038 1.45369 254.197 1.85301 254.197Z" fill="#7933D1"/>
<path d="M43.617 257.559C44.5791 257.559 45.5195 257.273 46.3194 256.738C47.1193 256.203 47.7428 255.443 48.1109 254.553C48.4791 253.663 48.5754 252.684 48.3877 251.74C48.2 250.795 47.7367 249.928 47.0565 249.247C46.3762 248.566 45.5095 248.102 44.566 247.914C43.6224 247.726 42.6444 247.823 41.7555 248.191C40.8667 248.56 40.107 249.184 39.5726 249.985C39.0381 250.785 38.7528 251.727 38.7528 252.69C38.7528 253.329 38.8786 253.962 39.123 254.553C39.3675 255.144 39.7258 255.681 40.1775 256.133C40.6292 256.585 41.1654 256.944 41.7555 257.188C42.3457 257.433 42.9782 257.559 43.617 257.559Z" fill="#7933D1"/>
<path d="M85.3807 260.921C89.9219 260.921 93.6033 257.236 93.6033 252.69C93.6033 248.144 89.9219 244.459 85.3807 244.459C80.8395 244.459 77.1581 248.144 77.1581 252.69C77.1581 257.236 80.8395 260.921 85.3807 260.921Z" fill="#7933D1"/>
<path d="M127.145 264.282C133.541 264.282 138.726 259.092 138.726 252.69C138.726 246.287 133.541 241.097 127.145 241.097C120.749 241.097 115.564 246.287 115.564 252.69C115.564 259.092 120.749 264.282 127.145 264.282Z" fill="#7933D1"/>
<path d="M168.909 267.065C171.749 267.065 174.525 266.222 176.887 264.642C179.249 263.063 181.089 260.818 182.176 258.191C183.263 255.564 183.547 252.674 182.993 249.886C182.439 247.097 181.071 244.536 179.063 242.525C177.055 240.515 174.496 239.146 171.71 238.591C168.925 238.037 166.037 238.321 163.413 239.409C160.789 240.497 158.547 242.34 156.969 244.704C155.391 247.068 154.548 249.847 154.548 252.69C154.548 254.578 154.92 256.447 155.641 258.191C156.363 259.935 157.421 261.52 158.754 262.855C160.088 264.189 161.671 265.248 163.413 265.971C165.156 266.693 167.023 267.065 168.909 267.065Z" fill="#7933D1"/>
<path d="M210.673 268.572C219.435 268.572 226.539 261.461 226.539 252.69C226.539 243.918 219.435 236.808 210.673 236.808C201.91 236.808 194.807 243.918 194.807 252.69C194.807 261.461 201.91 268.572 210.673 268.572Z" fill="#7933D1"/>
<path d="M252.437 267.297C255.323 267.297 258.144 266.44 260.544 264.835C262.943 263.23 264.813 260.949 265.918 258.28C267.022 255.611 267.311 252.674 266.748 249.84C266.185 247.007 264.795 244.404 262.755 242.361C260.714 240.319 258.114 238.928 255.283 238.364C252.453 237.8 249.519 238.09 246.852 239.195C244.186 240.301 241.907 242.173 240.304 244.575C238.7 246.977 237.845 249.801 237.844 252.69C237.845 256.564 239.382 260.279 242.118 263.018C244.855 265.758 248.567 267.297 252.437 267.297Z" fill="#7933D1"/>
<path d="M294.201 264.514C300.725 264.514 306.013 259.22 306.013 252.69C306.013 246.159 300.725 240.865 294.201 240.865C287.677 240.865 282.388 246.159 282.388 252.69C282.388 259.22 287.677 264.514 294.201 264.514Z" fill="#7933D1"/>
<path d="M1.85292 295.307C2.01329 295.307 2.17007 295.26 2.30341 295.171C2.43674 295.081 2.54061 294.955 2.60198 294.806C2.66335 294.658 2.67945 294.495 2.64816 294.337C2.61688 294.18 2.53957 294.035 2.42618 293.922C2.31279 293.808 2.16833 293.731 2.01104 293.7C1.85376 293.668 1.69073 293.684 1.54257 293.746C1.39441 293.807 1.26787 293.911 1.17877 294.045C1.08968 294.178 1.04211 294.335 1.04211 294.496C1.04207 294.602 1.06303 294.708 1.10376 294.806C1.1445 294.905 1.20416 294.994 1.27945 295.07C1.35475 295.145 1.44418 295.205 1.54257 295.246C1.64096 295.286 1.74643 295.307 1.85292 295.307Z" fill="#7933D1"/>
<path d="M43.617 298.205C44.3499 298.205 45.0664 297.988 45.6757 297.58C46.2851 297.172 46.7601 296.593 47.0406 295.915C47.321 295.237 47.3943 294.491 47.2513 293.772C47.1083 293.052 46.7553 292.391 46.237 291.873C45.7187 291.354 45.0583 291 44.3394 290.857C43.6206 290.714 42.8756 290.788 42.1984 291.069C41.5213 291.349 40.9425 291.825 40.5353 292.435C40.1281 293.045 39.9108 293.762 39.9108 294.496C39.9108 294.983 40.0067 295.465 40.1929 295.915C40.3792 296.366 40.6521 296.774 40.9963 297.119C41.3404 297.463 41.7491 297.737 42.1987 297.923C42.6484 298.109 43.1303 298.205 43.617 298.205Z" fill="#7933D1"/>
<path d="M85.3808 301.336C86.7322 301.336 88.0533 300.935 89.177 300.183C90.3007 299.432 91.1766 298.363 91.6938 297.114C92.211 295.864 92.3464 294.488 92.0828 293.162C91.8192 291.835 91.1684 290.616 90.2128 289.659C89.2572 288.703 88.0397 288.051 86.7143 287.787C85.3888 287.524 84.0149 287.659 82.7664 288.177C81.5178 288.694 80.4506 289.571 79.6998 290.696C78.9489 291.821 78.5481 293.143 78.5481 294.496C78.5481 296.31 79.2679 298.049 80.5493 299.332C81.8306 300.615 83.5686 301.336 85.3808 301.336Z" fill="#7933D1"/>
<path d="M127.145 304.002C132.389 304.002 136.641 299.746 136.641 294.496C136.641 289.246 132.389 284.99 127.145 284.99C121.9 284.99 117.648 289.246 117.648 294.496C117.648 299.746 121.9 304.002 127.145 304.002Z" fill="#7933D1"/>
<path d="M168.909 306.088C171.199 306.088 173.438 305.408 175.343 304.134C177.247 302.861 178.732 301.05 179.608 298.932C180.485 296.813 180.714 294.483 180.267 292.234C179.82 289.985 178.717 287.92 177.097 286.298C175.478 284.677 173.414 283.573 171.168 283.126C168.921 282.679 166.593 282.908 164.477 283.786C162.361 284.663 160.552 286.149 159.279 288.055C158.007 289.962 157.328 292.203 157.328 294.496C157.328 296.018 157.627 297.526 158.209 298.932C158.791 300.339 159.644 301.617 160.72 302.693C161.795 303.769 163.072 304.623 164.477 305.206C165.882 305.788 167.388 306.088 168.909 306.088Z" fill="#7933D1"/>
<path d="M210.672 307.016C213.146 307.016 215.565 306.282 217.621 304.906C219.678 303.53 221.282 301.575 222.228 299.287C223.175 296.999 223.423 294.482 222.94 292.053C222.458 289.625 221.266 287.394 219.517 285.643C217.768 283.892 215.539 282.699 213.113 282.216C210.687 281.733 208.172 281.981 205.887 282.929C203.601 283.876 201.648 285.481 200.273 287.54C198.899 289.599 198.165 292.019 198.165 294.496C198.165 297.816 199.483 301.001 201.828 303.349C204.174 305.697 207.355 307.016 210.672 307.016Z" fill="#7933D1"/>
<path d="M252.437 306.32C258.96 306.32 264.249 301.026 264.249 294.496C264.249 287.965 258.96 282.671 252.437 282.671C245.913 282.671 240.624 287.965 240.624 294.496C240.624 301.026 245.913 306.32 252.437 306.32Z" fill="#7933D1"/>
<path d="M294.201 304.233C299.573 304.233 303.929 299.874 303.929 294.496C303.929 289.118 299.573 284.758 294.201 284.758C288.828 284.758 284.473 289.118 284.473 294.496C284.473 299.874 288.828 304.233 294.201 304.233Z" fill="#7933D1"/>
<path d="M1.85301 336.418C1.91698 336.418 1.96884 336.366 1.96884 336.302C1.96884 336.238 1.91698 336.186 1.85301 336.186C1.78904 336.186 1.73718 336.238 1.73718 336.302C1.73718 336.366 1.78904 336.418 1.85301 336.418Z" fill="#7933D1"/>
<path d="M43.617 338.272C44.7043 338.272 45.5858 337.39 45.5858 336.302C45.5858 335.213 44.7043 334.331 43.617 334.331C42.5297 334.331 41.6482 335.213 41.6482 336.302C41.6482 337.39 42.5297 338.272 43.617 338.272Z" fill="#7933D1"/>
<path d="M85.3808 340.939C86.297 340.939 87.1926 340.667 87.9544 340.157C88.7162 339.648 89.31 338.923 89.6606 338.076C90.0112 337.229 90.103 336.296 89.9242 335.397C89.7455 334.497 89.3044 333.671 88.6565 333.023C88.0087 332.374 87.1832 331.933 86.2846 331.754C85.386 331.575 84.4545 331.667 83.6081 332.018C82.7616 332.369 82.0381 332.963 81.5292 333.725C81.0202 334.488 80.7485 335.385 80.7485 336.302C80.7486 337.531 81.2367 338.711 82.1054 339.58C82.974 340.45 84.1523 340.939 85.3808 340.939Z" fill="#7933D1"/>
<path d="M127.145 343.141C128.496 343.141 129.817 342.74 130.941 341.988C132.064 341.237 132.94 340.169 133.457 338.919C133.974 337.669 134.11 336.294 133.846 334.967C133.582 333.64 132.932 332.422 131.976 331.465C131.02 330.509 129.803 329.857 128.477 329.593C127.152 329.329 125.778 329.465 124.53 329.983C123.281 330.5 122.214 331.377 121.463 332.502C120.712 333.627 120.312 334.949 120.312 336.302C120.312 337.2 120.489 338.089 120.832 338.919C121.175 339.749 121.679 340.503 122.313 341.138C122.948 341.773 123.701 342.277 124.53 342.621C125.359 342.964 126.247 343.141 127.145 343.141Z" fill="#7933D1"/>
<path d="M168.909 344.764C170.581 344.764 172.215 344.268 173.606 343.338C174.996 342.408 176.079 341.086 176.719 339.54C177.359 337.994 177.526 336.292 177.2 334.65C176.874 333.009 176.069 331.501 174.886 330.317C173.704 329.134 172.198 328.328 170.558 328.002C168.918 327.675 167.218 327.843 165.673 328.483C164.129 329.124 162.808 330.208 161.879 331.6C160.95 332.992 160.455 334.628 160.455 336.302C160.455 337.413 160.673 338.513 161.098 339.54C161.523 340.567 162.146 341.5 162.931 342.286C163.716 343.071 164.648 343.695 165.674 344.12C166.699 344.545 167.799 344.764 168.909 344.764Z" fill="#7933D1"/>
<path d="M210.673 345.344C212.459 345.344 214.206 344.814 215.691 343.82C217.177 342.826 218.335 341.414 219.018 339.762C219.702 338.11 219.881 336.292 219.532 334.538C219.184 332.783 218.324 331.172 217.06 329.908C215.797 328.643 214.187 327.782 212.435 327.433C210.683 327.084 208.866 327.263 207.216 327.948C205.565 328.632 204.154 329.791 203.162 331.278C202.169 332.765 201.639 334.513 201.64 336.302C201.64 338.7 202.591 341 204.285 342.695C205.979 344.391 208.277 345.344 210.673 345.344Z" fill="#7933D1"/>
<path d="M252.437 344.88C254.132 344.88 255.789 344.377 257.198 343.434C258.607 342.492 259.706 341.152 260.354 339.584C261.003 338.017 261.173 336.292 260.842 334.628C260.511 332.963 259.695 331.435 258.496 330.235C257.298 329.035 255.771 328.218 254.108 327.887C252.446 327.556 250.723 327.726 249.157 328.376C247.591 329.025 246.252 330.125 245.311 331.536C244.369 332.946 243.867 334.605 243.867 336.302C243.867 338.577 244.77 340.759 246.377 342.367C247.984 343.976 250.164 344.88 252.437 344.88Z" fill="#7933D1"/>
<path d="M294.201 343.373C295.598 343.373 296.964 342.958 298.126 342.181C299.287 341.404 300.193 340.3 300.727 339.007C301.262 337.715 301.402 336.293 301.129 334.922C300.857 333.55 300.184 332.29 299.196 331.301C298.208 330.312 296.949 329.639 295.579 329.366C294.208 329.093 292.788 329.233 291.497 329.768C290.206 330.304 289.103 331.21 288.327 332.373C287.55 333.536 287.136 334.903 287.136 336.302C287.136 337.23 287.319 338.15 287.674 339.008C288.029 339.866 288.549 340.645 289.205 341.302C289.862 341.959 290.64 342.479 291.497 342.835C292.354 343.19 293.273 343.373 294.201 343.373Z" fill="#7933D1"/>
<path d="M43.617 378.455C43.6857 378.455 43.7528 378.435 43.8099 378.396C43.8669 378.358 43.9115 378.304 43.9378 378.24C43.9641 378.177 43.9709 378.107 43.9575 378.04C43.9441 377.972 43.911 377.91 43.8625 377.862C43.8139 377.813 43.752 377.78 43.6847 377.766C43.6173 377.753 43.5475 377.76 43.484 377.786C43.4206 377.812 43.3663 377.857 43.3281 377.914C43.29 377.971 43.2696 378.039 43.2695 378.107C43.2695 378.153 43.2785 378.198 43.2959 378.24C43.3134 378.283 43.339 378.321 43.3713 378.353C43.4035 378.386 43.4418 378.411 43.4839 378.429C43.5261 378.446 43.5714 378.455 43.617 378.455Z" fill="#7933D1"/>
<path d="M85.3808 380.078C86.4681 380.078 87.3495 379.196 87.3495 378.107C87.3495 377.019 86.4681 376.137 85.3808 376.137C84.2935 376.137 83.412 377.019 83.412 378.107C83.412 379.196 84.2935 380.078 85.3808 380.078Z" fill="#7933D1"/>
<path d="M127.145 381.933C129.256 381.933 130.967 380.22 130.967 378.107C130.967 375.994 129.256 374.282 127.145 374.282C125.034 374.282 123.323 375.994 123.323 378.107C123.323 380.22 125.034 381.933 127.145 381.933Z" fill="#7933D1"/>
<path d="M168.909 383.208C169.917 383.208 170.902 382.909 171.74 382.349C172.578 381.788 173.231 380.991 173.616 380.059C174.002 379.127 174.103 378.102 173.906 377.112C173.71 376.123 173.224 375.214 172.512 374.501C171.799 373.787 170.891 373.302 169.903 373.105C168.914 372.908 167.89 373.009 166.959 373.395C166.028 373.781 165.232 374.435 164.672 375.274C164.112 376.112 163.813 377.099 163.813 378.107C163.813 378.777 163.945 379.441 164.201 380.059C164.457 380.678 164.832 381.241 165.306 381.714C165.779 382.188 166.34 382.564 166.959 382.82C167.577 383.076 168.24 383.208 168.909 383.208Z" fill="#7933D1"/>
<path d="M210.673 383.672C211.772 383.672 212.847 383.346 213.761 382.734C214.675 382.123 215.388 381.254 215.809 380.237C216.229 379.22 216.339 378.102 216.125 377.022C215.911 375.943 215.381 374.951 214.604 374.173C213.826 373.395 212.836 372.865 211.757 372.65C210.679 372.435 209.561 372.545 208.546 372.966C207.53 373.388 206.662 374.101 206.051 375.016C205.44 375.931 205.114 377.007 205.114 378.107C205.114 378.838 205.257 379.562 205.537 380.237C205.816 380.912 206.226 381.525 206.742 382.042C207.258 382.559 207.871 382.969 208.545 383.249C209.22 383.528 209.943 383.672 210.673 383.672Z" fill="#7933D1"/>
<path d="M252.437 383.324C253.467 383.324 254.475 383.018 255.332 382.445C256.189 381.872 256.857 381.057 257.252 380.104C257.646 379.151 257.749 378.102 257.548 377.09C257.347 376.078 256.851 375.148 256.122 374.419C255.393 373.689 254.465 373.192 253.454 372.991C252.443 372.79 251.395 372.893 250.443 373.288C249.49 373.683 248.676 374.351 248.104 375.209C247.531 376.067 247.225 377.076 247.225 378.107C247.225 379.491 247.774 380.818 248.752 381.796C249.729 382.774 251.054 383.324 252.437 383.324Z" fill="#7933D1"/>
<path d="M294.201 382.165C296.439 382.165 298.254 380.348 298.254 378.107C298.254 375.866 296.439 374.05 294.201 374.05C291.962 374.05 290.147 375.866 290.147 378.107C290.147 380.348 291.962 382.165 294.201 382.165Z" fill="#7933D1"/>
<path d="M85.3807 420.029C85.4447 420.029 85.4966 419.977 85.4966 419.913C85.4966 419.849 85.4447 419.797 85.3807 419.797C85.3168 419.797 85.2649 419.849 85.2649 419.913C85.2649 419.977 85.3168 420.029 85.3807 420.029Z" fill="#7933D1"/>
<path d="M127.145 420.841C127.328 420.841 127.507 420.786 127.66 420.685C127.812 420.583 127.931 420.438 128.001 420.268C128.071 420.099 128.089 419.912 128.053 419.733C128.018 419.553 127.929 419.387 127.8 419.258C127.67 419.128 127.505 419.04 127.325 419.004C127.146 418.968 126.96 418.986 126.79 419.057C126.621 419.127 126.476 419.246 126.374 419.398C126.273 419.551 126.218 419.73 126.218 419.913C126.218 420.035 126.242 420.156 126.289 420.268C126.335 420.381 126.404 420.483 126.49 420.569C126.576 420.655 126.678 420.724 126.79 420.77C126.903 420.817 127.023 420.841 127.145 420.841Z" fill="#7933D1"/>
<path d="M168.909 421.652C169.252 421.652 169.588 421.55 169.874 421.359C170.159 421.168 170.382 420.896 170.513 420.578C170.645 420.261 170.679 419.911 170.612 419.574C170.545 419.236 170.38 418.927 170.137 418.683C169.894 418.44 169.584 418.275 169.247 418.208C168.91 418.141 168.561 418.175 168.244 418.307C167.926 418.438 167.655 418.661 167.464 418.947C167.273 419.233 167.171 419.569 167.171 419.913C167.171 420.142 167.216 420.368 167.304 420.579C167.391 420.79 167.519 420.981 167.68 421.143C167.842 421.304 168.033 421.432 168.244 421.52C168.455 421.607 168.681 421.652 168.909 421.652Z" fill="#7933D1"/>
<path d="M210.673 422C211.824 422 212.757 421.066 212.757 419.913C212.757 418.761 211.824 417.827 210.673 417.827C209.521 417.827 208.588 418.761 208.588 419.913C208.588 421.066 209.521 422 210.673 422Z" fill="#7933D1"/>
<path d="M252.437 421.768C253.46 421.768 254.29 420.938 254.29 419.913C254.29 418.889 253.46 418.059 252.437 418.059C251.413 418.059 250.584 418.889 250.584 419.913C250.584 420.938 251.413 421.768 252.437 421.768Z" fill="#7933D1"/>
<path d="M294.201 420.841C294.384 420.841 294.563 420.786 294.715 420.685C294.868 420.583 294.986 420.438 295.056 420.268C295.127 420.099 295.145 419.912 295.109 419.733C295.073 419.553 294.985 419.387 294.856 419.258C294.726 419.128 294.561 419.04 294.381 419.004C294.201 418.968 294.015 418.986 293.846 419.057C293.677 419.127 293.532 419.246 293.43 419.398C293.328 419.551 293.274 419.73 293.274 419.913C293.274 420.035 293.298 420.156 293.345 420.268C293.391 420.381 293.459 420.483 293.545 420.569C293.631 420.655 293.734 420.724 293.846 420.77C293.958 420.817 294.079 420.841 294.201 420.841Z" fill="#7933D1"/>
</g>
</svg>
